ply
format ascii 1.0
comment Created in Blender version 4.3.1
element vertex 99
property float x
property float y
property float z
element face 95
property list uchar uint vertex_indices
end_header
50.12862 26.20665 38.229286
48.93111 30.829088 38.229286
52.87337 27.791334 38.229286
55.618122 29.376019 38.229286
60.640945 37.589764 38.22929
61.107624 32.545383 38.229286
63.852375 34.130066 38.22929
69.423325 42.660275 38.22929
72.08663 38.884113 38.22929
72.350784 44.350445 38.22929
63.56841 39.279934 38.22929
34.29381 22.378239 38.229286
36.404858 18.283236 38.229286
58.362877 30.960701 38.229286
54.78603 34.209427 38.22929
66.49587 40.970104 38.22929
66.59713 35.71475 38.22929
74.83138 40.4688 38.22929
69.34188 37.299435 38.22929
75.27825 46.040615 38.22929
77.57613 42.053482 38.22929
31.366354 20.68807 38.229286
33.660107 16.698551 38.229286
44.639114 23.037285 38.229286
43.07619 27.44875 38.229286
57.71349 35.899597 38.22929
41.89436 21.452602 38.229286
40.14873 25.758577 38.229286
39.14961 19.867918 38.229286
37.221275 24.068409 38.229286
51.858574 32.519257 38.229286
46.00365 29.138918 38.229286
47.383865 24.621967 38.229286
50.12862 26.20665 38.229286
48.93111 30.829088 38.229286
52.87337 27.791334 38.229286
55.618122 29.376019 38.229286
60.640945 37.589764 38.22929
61.107624 32.545383 38.229286
63.852375 34.130066 38.22929
69.423325 42.660275 38.22929
72.08663 38.884113 38.22929
72.350784 44.350445 38.22929
63.56841 39.279934 38.22929
34.29381 22.378239 38.229286
36.404858 18.283236 38.229286
58.362877 30.960701 38.229286
54.78603 34.209427 38.22929
66.49587 40.970104 38.22929
66.59713 35.71475 38.22929
74.83138 40.4688 38.22929
69.34188 37.299435 38.22929
75.27825 46.040615 38.22929
77.57613 42.053482 38.22929
31.366354 20.68807 38.229286
33.660107 16.698551 38.229286
44.639114 23.037285 38.229286
43.07619 27.44875 38.229286
57.71349 35.899597 38.22929
41.89436 21.452602 38.229286
40.14873 25.758577 38.229286
39.14961 19.867918 38.229286
37.221275 24.068409 38.229286
51.858574 32.519257 38.229286
46.00365 29.138918 38.229286
47.383865 24.621967 38.229286
50.12862 26.206652 12.029285
48.93111 30.82909 12.029285
52.87337 27.791336 12.029285
55.618122 29.37602 12.029285
60.640945 37.589764 12.029289
61.107624 32.545383 12.029285
63.852375 34.130066 12.029289
69.423325 42.660275 12.029289
72.08663 38.884113 12.029289
72.350784 44.350445 12.029289
63.56841 39.279934 12.029289
34.29381 22.37824 12.029285
36.404858 18.283237 12.029285
58.362877 30.960703 12.029285
54.78603 34.209427 12.029289
66.49587 40.970104 12.029289
66.59713 35.71475 12.029289
74.83138 40.4688 12.029289
69.34188 37.299435 12.029289
75.27825 46.040615 12.029289
77.57613 42.053482 12.029289
31.366354 20.688072 12.029285
33.660107 16.698553 12.029285
44.639114 23.037287 12.029285
43.07619 27.448751 12.029285
57.71349 35.899597 12.029289
41.89436 21.452604 12.029285
40.14873 25.75858 12.029285
39.14961 19.86792 12.029285
37.221275 24.06841 12.029285
51.858574 32.519257 12.029285
46.00365 29.13892 12.029285
47.383865 24.62197 12.029285
3 31 0 32
3 23 24 32
3 0 31 1
3 30 3 2
3 13 3 14
3 14 25 13
3 4 5 25
3 10 15 16
3 26 27 23
3 28 29 26
3 4 6 5
3 26 29 27
3 3 30 14
3 31 32 24
3 24 23 27
3 25 5 13
3 18 15 7
3 16 6 10
3 7 8 18
3 15 18 16
3 8 7 9
3 17 8 9
3 9 19 17
3 20 17 19
3 4 10 6
3 1 30 2
3 0 1 2
3 11 28 12
3 28 11 29
3 22 21 12
3 11 12 21
4 63 34 67 96
4 60 62 95 93
4 62 44 77 95
4 51 41 74 84
4 47 63 96 80
4 56 65 98 89
4 65 33 66 98
4 33 35 68 66
4 43 37 70 76
4 42 40 73 75
4 44 54 87 77
4 35 36 69 68
4 54 55 88 87
4 53 52 85 86
4 52 42 75 85
4 49 51 84 82
4 39 49 82 72
4 55 45 78 88
4 57 60 93 90
4 61 59 92 94
4 58 47 80 91
4 45 61 94 78
4 50 53 86 83
4 64 57 90 97
4 37 58 91 70
4 34 64 97 67
4 41 50 83 74
4 38 39 72 71
4 48 43 76 81
4 36 46 79 69
4 40 48 81 73
4 46 38 71 79
3 97 98 66
3 89 98 90
3 66 67 97
3 96 68 69
3 79 80 69
3 80 79 91
3 70 91 71
3 76 82 81
3 92 89 93
3 94 92 95
3 70 71 72
3 92 93 95
3 69 80 96
3 97 90 98
3 90 93 89
3 91 79 71
3 84 73 81
3 82 76 72
3 73 84 74
3 81 82 84
3 74 75 73
3 83 75 74
3 75 83 85
3 86 85 83
3 70 72 76
3 67 68 96
3 66 68 67
3 77 78 94
3 94 95 77
3 88 78 87
3 77 87 78
4 59 56 89 92
