ply
format ascii 1.0
comment Created in Blender version 4.3.1
element vertex 99
property float x
property float y
property float z
element face 95
property list uchar uint vertex_indices
end_header
34.209427 -54.78603 38.229286
30.960701 -58.362877 38.229286
29.376019 -55.618122 38.229286
39.279934 -63.56841 38.229286
40.970104 -66.49587 38.229286
35.71475 -66.59713 38.229286
40.4688 -74.83138 38.229286
42.053482 -77.57613 38.229282
32.519257 -51.858574 38.229286
30.829088 -48.93111 38.229286
29.138918 -46.00365 38.229286
19.867918 -39.14961 38.229286
22.378239 -34.29381 38.229286
18.283236 -36.404858 38.229286
42.660275 -69.423325 38.229286
37.299435 -69.34188 38.229286
32.545383 -61.107624 38.229286
24.621967 -47.383865 38.229286
27.44875 -43.07619 38.229286
23.037285 -44.639114 38.229286
38.884113 -72.08663 38.229286
25.758577 -40.14873 38.229286
37.589764 -60.640945 38.229286
34.130066 -63.852375 38.229286
44.350445 -72.350784 38.229286
21.452602 -41.89436 38.229286
27.791334 -52.87337 38.229286
24.068409 -37.221275 38.229286
20.68807 -31.366354 38.229286
16.698551 -33.660107 38.229286
46.040615 -75.27825 38.229286
26.20665 -50.12862 38.229286
35.899597 -57.71349 38.229286
34.209427 -54.78603 38.229286
30.960701 -58.362877 38.229286
29.376019 -55.618122 38.229286
39.279934 -63.56841 38.229286
40.970104 -66.49587 38.229286
35.71475 -66.59713 38.229286
40.4688 -74.83138 38.229286
42.053482 -77.57613 38.229282
32.519257 -51.858574 38.229286
30.829088 -48.93111 38.229286
29.138918 -46.00365 38.229286
19.867918 -39.14961 38.229286
22.378239 -34.29381 38.229286
18.283236 -36.404858 38.229286
42.660275 -69.423325 38.229286
37.299435 -69.34188 38.229286
32.545383 -61.107624 38.229286
24.621967 -47.383865 38.229286
27.44875 -43.07619 38.229286
23.037285 -44.639114 38.229286
38.884113 -72.08663 38.229286
25.758577 -40.14873 38.229286
37.589764 -60.640945 38.229286
34.130066 -63.852375 38.229286
44.350445 -72.350784 38.229286
21.452602 -41.89436 38.229286
27.791334 -52.87337 38.229286
24.068409 -37.221275 38.229286
20.68807 -31.366354 38.229286
16.698551 -33.660107 38.229286
46.040615 -75.27825 38.229286
26.20665 -50.12862 38.229286
35.899597 -57.71349 38.229286
34.209427 -54.78603 12.029285
30.960701 -58.362877 12.029285
29.376019 -55.618122 12.029285
39.279934 -63.56841 12.029285
40.970104 -66.49587 12.029285
35.71475 -66.59713 12.029285
40.4688 -74.83138 12.029285
42.053482 -77.57613 12.029282
32.519257 -51.858574 12.029285
30.829088 -48.93111 12.029285
29.138918 -46.00365 12.029285
19.867918 -39.14961 12.029285
22.378239 -34.29381 12.029285
18.283236 -36.404858 12.029285
42.660275 -69.423325 12.029285
37.299435 -69.34188 12.029285
32.545383 -61.107624 12.029285
24.621967 -47.383865 12.029285
27.44875 -43.07619 12.029285
23.037285 -44.639114 12.029285
38.884113 -72.08663 12.029285
25.758577 -40.14873 12.029285
37.589764 -60.640945 12.029285
34.130066 -63.852375 12.029285
44.350445 -72.350784 12.029285
21.452602 -41.89436 12.029285
27.791334 -52.87337 12.029285
24.068409 -37.221275 12.029285
20.68807 -31.366352 12.029285
16.698551 -33.660107 12.029285
46.040615 -75.27825 12.029285
26.20665 -50.12862 12.029285
35.899597 -57.71349 12.029285
3 32 1 0
3 32 22 16
3 1 2 0
3 16 22 23
3 3 23 22
3 4 5 3
3 5 23 3
3 4 14 15
3 32 16 1
3 15 14 20
3 24 20 14
3 30 6 24
3 6 20 24
3 30 7 6
3 4 15 5
3 8 2 26
3 2 8 0
3 31 9 26
3 8 26 9
3 31 17 10
3 10 9 31
3 18 17 19
3 17 18 10
3 25 21 19
3 18 19 21
3 25 11 27
3 27 21 25
3 12 11 13
3 11 12 27
3 12 13 28
3 28 13 29
4 43 51 84 76
4 34 49 82 67
4 47 37 70 80
4 35 34 67 68
4 51 54 87 84
4 48 53 86 81
4 61 62 95 94
4 45 61 94 78
4 44 58 91 77
4 41 42 75 74
4 53 39 72 86
4 36 55 88 69
4 60 45 78 93
4 50 64 97 83
4 40 63 96 73
4 56 38 71 89
4 55 65 98 88
4 65 33 66 98
4 46 44 77 79
4 42 43 76 75
4 33 41 74 66
4 39 40 73 72
4 37 36 69 70
4 52 50 83 85
4 38 48 81 71
4 58 52 85 91
4 57 47 80 90
4 49 56 89 82
3 98 66 67
3 98 82 88
3 67 66 68
3 82 89 88
3 69 88 89
3 70 69 71
3 71 69 89
3 70 81 80
3 98 67 82
3 81 86 80
3 90 80 86
3 96 90 72
3 72 90 86
3 96 72 73
3 70 71 81
3 74 92 68
3 68 66 74
3 97 92 75
3 74 75 92
3 97 76 83
3 76 97 75
3 84 85 83
3 83 76 84
3 91 85 87
3 84 87 85
3 91 93 77
3 93 91 87
3 78 79 77
3 77 93 78
3 78 94 79
3 94 95 79
4 63 57 90 96
4 59 35 68 92
4 64 59 92 97
4 54 60 93 87
4 62 46 79 95
