ply
format ascii 1.0
comment Created in Blender version 4.3.1
element vertex 99
property float x
property float y
property float z
element face 95
property list uchar uint vertex_indices
end_header
-2.3686836 -75.53218 38.229286
-2.3686836 -78.70155 38.229282
2.2332172 -61.170467 38.229286
-2.3686836 -59.68535 38.229286
2.2332172 -57.79013 38.229286
-2.3686836 -47.007885 38.229286
2.2332172 -47.64911 38.229286
-2.3686836 -43.838516 38.229286
2.2332172 -44.268772 38.229286
-2.3686836 -40.66915 38.229286
2.2332172 -40.88843 38.229286
2.2332172 -81.4525 38.229282
-2.3686836 -81.87091 38.229282
-2.3686836 -56.51598 38.229286
2.2332172 -64.55081 38.229286
-2.3686836 -66.024086 38.229286
-2.3686836 -62.854717 38.229286
2.2332172 -67.931145 38.229286
2.2332172 -71.311485 38.229286
-2.3686836 -69.19345 38.229286
2.2332172 -84.83284 38.229282
-2.3686836 -53.346615 38.229286
2.2332172 -54.40979 38.229286
2.2332172 -37.508095 38.229286
-2.3686829 -37.499783 38.229286
2.2332172 -74.69182 38.229286
-2.3686836 -72.362816 38.229286
-2.3686836 -85.040276 38.229282
2.2332165 -88.21318 38.229282
-2.3686836 -88.20965 38.229282
2.2332172 -51.029453 38.229286
-2.3686836 -50.17725 38.229286
2.2332172 -78.07217 38.229282
-2.3686836 -75.53218 38.229286
-2.3686836 -78.70155 38.229282
2.2332172 -61.170467 38.229286
-2.3686836 -59.68535 38.229286
2.2332172 -57.79013 38.229286
-2.3686836 -47.007885 38.229286
2.2332172 -47.64911 38.229286
-2.3686836 -43.838516 38.229286
2.2332172 -44.268772 38.229286
-2.3686836 -40.66915 38.229286
2.2332172 -40.88843 38.229286
2.2332172 -81.4525 38.229282
-2.3686836 -81.87091 38.229282
-2.3686836 -56.51598 38.229286
2.2332172 -64.55081 38.229286
-2.3686836 -66.024086 38.229286
-2.3686836 -62.854717 38.229286
2.2332172 -67.931145 38.229286
2.2332172 -71.311485 38.229286
-2.3686836 -69.19345 38.229286
2.2332172 -84.83284 38.229282
-2.3686836 -53.346615 38.229286
2.2332172 -54.40979 38.229286
2.2332172 -37.508095 38.229286
-2.3686829 -37.499783 38.229286
2.2332172 -74.69182 38.229286
-2.3686836 -72.362816 38.229286
-2.3686836 -85.040276 38.229282
2.2332165 -88.21318 38.229282
-2.3686836 -88.20965 38.229282
2.2332172 -51.029453 38.229286
-2.3686836 -50.17725 38.229286
2.2332172 -78.07217 38.229282
-2.3686836 -75.53218 12.029285
-2.3686836 -78.70155 12.029282
2.2332172 -61.170467 12.029285
-2.3686836 -59.68535 12.029285
2.2332172 -57.79013 12.029285
-2.3686836 -47.007885 12.029285
2.2332172 -47.64911 12.029285
-2.3686836 -43.838516 12.029285
2.2332172 -44.268772 12.029285
-2.3686836 -40.66915 12.029285
2.2332172 -40.88843 12.029285
2.2332172 -81.4525 12.029282
-2.3686836 -81.87091 12.029282
-2.3686836 -56.51598 12.029285
2.2332172 -64.55081 12.029285
-2.3686836 -66.024086 12.029285
-2.3686836 -62.854717 12.029285
2.2332172 -67.931145 12.029285
2.2332172 -71.311485 12.029285
-2.3686836 -69.19345 12.029285
2.2332172 -84.83284 12.029282
-2.3686836 -53.346615 12.029285
2.2332172 -54.40979 12.029285
2.2332172 -37.508095 12.029285
-2.3686829 -37.499783 12.029285
2.2332172 -74.69182 12.029285
-2.3686836 -72.362816 12.029285
-2.3686836 -85.040276 12.029282
2.2332165 -88.21318 12.029282
-2.3686836 -88.20965 12.029282
2.2332172 -51.029453 12.029285
-2.3686836 -50.17725 12.029285
2.2332172 -78.07217 12.029282
3 14 15 16
3 23 9 24
3 17 15 14
3 18 19 17
3 18 25 26
3 17 19 15
3 32 0 25
3 26 25 0
3 1 0 32
3 11 12 1
3 1 32 11
3 27 12 20
3 11 20 12
3 27 20 28
3 28 29 27
3 18 26 19
3 2 16 3
3 16 2 14
3 13 4 3
3 2 3 4
3 13 21 22
3 22 4 13
3 30 21 31
3 21 30 22
3 5 6 31
3 30 31 6
3 5 7 8
3 8 6 5
3 10 7 9
3 7 10 8
3 10 9 23
4 39 41 74 72
4 46 36 69 79
4 34 45 78 67
4 43 56 89 76
4 37 55 88 70
4 36 49 82 69
4 45 60 93 78
4 58 51 84 91
4 56 57 90 89
4 49 48 81 82
4 64 54 87 97
4 61 53 86 94
4 59 33 66 92
4 57 42 75 90
4 38 64 97 71
4 44 65 98 77
4 42 40 73 75
4 40 38 71 73
4 35 37 70 68
4 33 34 67 66
4 41 43 76 74
4 54 46 79 87
4 47 35 68 80
4 53 44 77 86
4 51 50 83 84
4 50 47 80 83
4 55 63 96 88
4 52 59 92 85
4 60 62 95 93
4 48 52 85 81
3 80 82 81
3 89 90 75
3 83 80 81
3 84 83 85
3 84 92 91
3 83 81 85
3 98 91 66
3 92 66 91
3 67 98 66
3 77 67 78
3 67 77 98
3 93 86 78
3 77 78 86
3 93 94 86
3 94 93 95
3 84 85 92
3 68 69 82
3 82 80 68
3 79 69 70
3 68 70 69
3 79 88 87
3 88 79 70
3 96 97 87
3 87 88 96
3 71 97 72
3 96 72 97
3 71 74 73
3 74 71 72
3 76 75 73
3 73 74 76
3 76 89 75
4 65 58 91 98
4 62 61 94 95
4 63 39 72 96
