ply
format ascii 1.0
comment Created in Blender version 4.3.1
element vertex 99
property float x
property float y
property float z
element face 95
property list uchar uint vertex_indices
end_header
25.270872 48.23687 38.22929
26.961042 51.16433 38.22929
37.10206 68.72909 38.22929
41.402115 66.9732 38.22929
38.79223 71.65655 38.22929
30.341381 57.01925 38.22929
32.03155 59.946705 38.22929
35.06338 55.99419 38.22929
23.580704 45.309406 38.22929
20.200363 39.45449 38.22929
21.890532 42.38195 38.22929
25.555283 39.52568 38.22929
31.894014 50.504684 38.22929
28.65121 54.091785 38.22929
33.4787 53.24944 38.22929
33.72172 62.874165 38.22929
38.232746 61.483696 38.22929
35.41189 65.80163 38.22929
42.986794 69.71795 38.22929
23.970598 36.780926 38.22929
18.510193 36.52703 38.22929
36.648064 58.738945 38.22929
27.139965 42.270428 38.22929
39.817432 64.22845 38.22929
40.482395 74.58401 38.22929
44.57148 72.4627 38.22929
42.17257 77.51147 38.22929
22.385916 34.036175 38.22929
46.156162 75.20745 38.22929
28.724648 45.015182 38.22929
30.30933 47.759933 38.22929
16.820024 33.59957 38.22929
20.801231 31.291424 38.229286
25.270872 48.23687 38.22929
26.961042 51.16433 38.22929
37.10206 68.72909 38.22929
41.402115 66.9732 38.22929
38.79223 71.65655 38.22929
30.341381 57.01925 38.22929
32.03155 59.946705 38.22929
35.06338 55.99419 38.22929
23.580704 45.309406 38.22929
20.200363 39.45449 38.22929
21.890532 42.38195 38.22929
25.555283 39.52568 38.22929
31.894014 50.504684 38.22929
28.65121 54.091785 38.22929
33.4787 53.24944 38.22929
33.72172 62.874165 38.22929
38.232746 61.483696 38.22929
35.41189 65.80163 38.22929
42.986794 69.71795 38.22929
23.970598 36.780926 38.22929
18.510193 36.52703 38.22929
36.648064 58.738945 38.22929
27.139965 42.270428 38.22929
39.817432 64.22845 38.22929
40.482395 74.58401 38.22929
44.57148 72.4627 38.22929
42.17257 77.51147 38.22929
22.385916 34.036175 38.22929
46.156162 75.20745 38.22929
28.724648 45.015182 38.22929
30.30933 47.759933 38.22929
16.820024 33.59957 38.22929
20.801231 31.291424 38.229286
25.270872 48.23687 12.029289
26.961042 51.16433 12.029289
37.10206 68.72909 12.029289
41.402115 66.9732 12.029289
38.79223 71.65655 12.029289
30.341381 57.01925 12.029289
32.03155 59.946705 12.029289
35.06338 55.99419 12.029289
23.580704 45.309406 12.029289
20.200363 39.45449 12.029289
21.890532 42.38195 12.029289
25.555283 39.52568 12.029289
31.894014 50.504684 12.029289
28.65121 54.091785 12.029289
33.4787 53.24944 12.029289
33.72172 62.874165 12.029289
38.232746 61.483696 12.029289
35.41189 65.80163 12.029289
42.986794 69.71795 12.029289
23.970598 36.780926 12.029289
18.510193 36.52703 12.029289
36.648064 58.738945 12.029289
27.139965 42.270428 12.029289
39.817432 64.22845 12.029289
40.482395 74.58401 12.029289
44.57148 72.4627 12.029289
42.17257 77.51147 12.029289
22.385916 34.036175 12.029289
46.156162 75.20745 12.029289
28.724648 45.015182 12.029289
30.30933 47.759933 12.029289
16.820024 33.59957 12.029289
20.801231 31.291426 12.029285
3 29 0 30
3 9 10 11
3 10 8 22
3 29 22 8
3 12 30 1
3 1 13 12
3 14 12 13
3 13 5 14
3 21 7 6
3 21 6 15
3 11 10 22
3 21 15 16
3 0 1 30
3 15 17 16
3 16 17 23
3 2 3 23
3 23 17 2
3 3 2 4
3 18 3 4
3 24 18 4
3 18 24 25
3 26 25 24
3 25 26 28
3 6 7 5
3 5 7 14
3 8 0 29
3 9 19 20
3 19 9 11
3 31 20 27
3 19 27 20
3 32 31 27
4 58 61 94 91
4 61 59 92 94
4 56 36 69 89
4 63 45 78 96
4 33 41 74 66
4 39 38 71 72
4 37 35 68 70
4 34 33 66 67
4 52 44 77 85
4 59 57 90 92
4 57 37 70 90
4 49 56 89 82
4 54 49 82 87
4 44 55 88 77
4 40 54 87 73
4 46 34 67 79
4 60 52 85 93
4 38 46 79 71
4 65 60 93 98
4 64 65 98 97
4 53 64 97 86
4 47 40 73 80
4 51 58 91 84
4 35 50 83 68
4 55 62 95 88
4 42 53 86 75
4 62 63 96 95
4 36 51 84 69
4 50 48 81 83
4 45 47 80 78
4 43 42 75 76
3 95 96 66
3 75 77 76
3 76 88 74
3 95 74 88
3 78 67 96
3 67 78 79
3 80 79 78
3 79 80 71
3 87 72 73
3 87 81 72
3 77 88 76
3 87 82 81
3 66 96 67
3 81 82 83
3 82 89 83
3 68 89 69
3 89 68 83
3 69 70 68
3 84 70 69
3 90 70 84
3 84 91 90
3 92 90 91
3 91 94 92
3 72 71 73
3 71 80 73
3 74 95 66
3 75 86 85
3 85 77 75
3 97 93 86
3 85 86 93
3 98 93 97
4 41 43 76 74
4 48 39 72 81
