ply
format ascii 1.0
comment Created in Blender version 4.3.1
element vertex 102
property float x
property float y
property float z
element face 98
property list uchar uint vertex_indices
end_header
-81.4525 -2.2332177 38.229286
-84.83284 -2.2332177 38.229286
-61.170467 -2.2332177 38.229286
-57.79013 -2.2332177 38.229286
-59.68535 2.368683 38.229286
-47.007885 2.368683 38.229286
-47.64911 -2.2332177 38.229286
-50.17725 2.368683 38.229286
-72.362816 2.368683 38.229286
-71.311485 -2.2332177 38.229286
-74.69182 -2.2332177 38.229286
-75.53218 2.368683 38.229286
-85.040276 2.368683 38.229286
-88.24144 -5.7530457e-07 38.229286
-88.21318 -2.233217 38.229286
-56.51598 2.368683 38.229286
-54.40979 -2.2332177 38.229286
-40.88843 -2.2332177 38.229286
-40.66915 2.368683 38.229286
-37.508095 -2.2332177 38.229286
-37.499783 2.3686824 38.229286
-66.024086 2.368683 38.229286
-67.931145 -2.2332177 38.229286
-69.19345 2.368683 38.229286
-88.20965 2.368683 38.229286
-64.55081 -2.2332177 38.229286
-62.854717 2.368683 38.229286
-78.07217 -2.2332177 38.229286
-53.346615 2.368683 38.229286
-78.70155 2.368683 38.229286
-51.029453 -2.2332177 38.229286
-81.87091 2.368683 38.229286
-44.268772 -2.2332177 38.229286
-43.838516 2.368683 38.229286
-81.4525 -2.2332177 38.229286
-84.83284 -2.2332177 38.229286
-61.170467 -2.2332177 38.229286
-57.79013 -2.2332177 38.229286
-59.68535 2.368683 38.229286
-47.007885 2.368683 38.229286
-47.64911 -2.2332177 38.229286
-50.17725 2.368683 38.229286
-72.362816 2.368683 38.229286
-71.311485 -2.2332177 38.229286
-74.69182 -2.2332177 38.229286
-75.53218 2.368683 38.229286
-85.040276 2.368683 38.229286
-88.24144 -5.7530457e-07 38.229286
-88.21318 -2.233217 38.229286
-56.51598 2.368683 38.229286
-54.40979 -2.2332177 38.229286
-40.88843 -2.2332177 38.229286
-40.66915 2.368683 38.229286
-37.508095 -2.2332177 38.229286
-37.499783 2.3686824 38.229286
-66.024086 2.368683 38.229286
-67.931145 -2.2332177 38.229286
-69.19345 2.368683 38.229286
-88.20965 2.368683 38.229286
-64.55081 -2.2332177 38.229286
-62.854717 2.368683 38.229286
-78.07217 -2.2332177 38.229286
-53.346615 2.368683 38.229286
-78.70155 2.368683 38.229286
-51.029453 -2.2332177 38.229286
-81.87091 2.368683 38.229286
-44.268772 -2.2332177 38.229286
-43.838516 2.368683 38.229286
-81.4525 -2.2332165 12.029285
-84.83284 -2.2332165 12.029285
-61.170467 -2.2332165 12.029285
-57.79013 -2.2332165 12.029285
-59.68535 2.3686843 12.029285
-47.007885 2.3686843 12.029285
-47.64911 -2.2332165 12.029285
-50.17725 2.3686843 12.029285
-72.362816 2.3686843 12.029285
-71.311485 -2.2332165 12.029285
-74.69182 -2.2332165 12.029285
-75.53218 2.3686843 12.029285
-85.040276 2.3686843 12.029285
-88.24144 6.5660123e-07 12.029285
-88.21318 -2.2332158 12.029285
-56.51598 2.3686843 12.029285
-54.40979 -2.2332165 12.029285
-40.88843 -2.2332165 12.029285
-40.66915 2.3686843 12.029285
-37.508095 -2.2332165 12.029285
-37.499783 2.3686836 12.029285
-66.024086 2.3686843 12.029285
-67.931145 -2.2332165 12.029285
-69.19345 2.3686843 12.029285
-88.20965 2.3686843 12.029285
-64.55081 -2.2332165 12.029285
-62.854717 2.3686843 12.029285
-78.07217 -2.2332165 12.029285
-53.346615 2.3686843 12.029285
-78.70155 2.3686843 12.029285
-51.029453 -2.2332165 12.029285
-81.87091 2.3686843 12.029285
-44.268772 -2.2332165 12.029285
-43.838516 2.3686843 12.029285
3 21 22 23
3 32 5 33
3 8 23 9
3 22 9 23
3 10 11 8
3 8 9 10
3 11 27 29
3 27 11 10
3 31 29 0
3 27 0 29
3 1 12 31
3 31 0 1
3 24 12 13
3 13 12 1
3 21 25 22
3 14 13 1
3 25 21 26
3 26 2 25
3 3 2 4
3 26 4 2
3 15 16 3
3 3 4 15
3 16 28 30
3 28 16 15
3 6 30 7
3 28 7 30
3 5 32 6
3 6 7 5
3 17 32 33
3 17 18 19
3 18 17 33
3 18 20 19
4 42 45 79 76
4 62 49 83 96
4 58 47 81 92
4 61 44 78 95
4 57 42 76 91
4 64 40 74 98
4 59 36 70 93
4 63 65 99 97
4 52 67 101 86
4 38 60 94 72
4 65 46 80 99
4 67 39 73 101
4 39 41 75 73
4 36 37 71 70
4 35 34 68 69
4 49 38 72 83
4 60 55 89 94
4 46 58 92 80
4 44 43 77 78
4 55 57 91 89
4 50 64 98 84
4 47 48 82 81
4 56 59 93 90
4 45 63 97 79
4 43 56 90 77
4 66 51 85 100
4 40 66 100 74
4 41 62 96 75
4 34 61 95 68
3 89 91 90
3 100 101 73
3 76 77 91
3 90 91 77
3 78 76 79
3 76 78 77
3 79 97 95
3 95 78 79
3 99 68 97
3 95 97 68
3 69 99 80
3 99 69 68
3 92 81 80
3 81 69 80
3 89 90 93
3 82 69 81
3 93 94 89
3 94 93 70
3 71 72 70
3 94 70 72
3 83 71 84
3 71 83 72
3 84 98 96
3 96 83 84
3 74 75 98
3 96 98 75
3 73 74 100
3 74 73 75
3 85 101 100
3 85 87 86
3 86 101 85
3 86 87 88
4 48 35 69 82
4 37 50 84 71
4 51 53 87 85
4 54 52 86 88
4 53 54 88 87
