ply
format ascii 1.0
comment Created in Blender version 4.3.1
element vertex 99
property float x
property float y
property float z
element face 95
property list uchar uint vertex_indices
end_header
62.874165 -33.72172 38.229286
61.483696 -38.232746 38.229286
58.738945 -36.648064 38.229286
64.22845 -39.817432 38.229286
68.72909 -37.10206 38.229286
66.9732 -41.402115 38.229286
59.946705 -32.03155 38.229286
48.23687 -25.270872 38.229286
47.759933 -30.30933 38.229286
45.015182 -28.724648 38.229286
42.270428 -27.139965 38.229286
39.52568 -25.555283 38.229286
33.59957 -16.820024 38.229286
31.291424 -20.801231 38.229286
71.65655 -38.79223 38.229286
57.01925 -30.341381 38.229286
55.99419 -35.06338 38.229286
69.71795 -42.986794 38.229286
54.091785 -28.65121 38.229286
53.24944 -33.4787 38.229286
72.4627 -44.57148 38.229286
77.51147 -42.17257 38.229286
75.20745 -46.156162 38.229286
36.780926 -23.970598 38.229286
39.45449 -20.200363 38.229286
74.58401 -40.482395 38.229286
51.16433 -26.961042 38.229286
50.504684 -31.894014 38.229286
36.52703 -18.510193 38.229286
34.036175 -22.385916 38.229286
45.309406 -23.580704 38.229286
42.38195 -21.890532 38.229286
65.80163 -35.41189 38.229286
62.874165 -33.72172 38.229286
61.483696 -38.232746 38.229286
58.738945 -36.648064 38.229286
64.22845 -39.817432 38.229286
68.72909 -37.10206 38.229286
66.9732 -41.402115 38.229286
59.946705 -32.03155 38.229286
48.23687 -25.270872 38.229286
47.759933 -30.30933 38.229286
45.015182 -28.724648 38.229286
42.270428 -27.139965 38.229286
39.52568 -25.555283 38.229286
33.59957 -16.820024 38.229286
31.291424 -20.801231 38.229286
71.65655 -38.79223 38.229286
57.01925 -30.341381 38.229286
55.99419 -35.06338 38.229286
69.71795 -42.986794 38.229286
54.091785 -28.65121 38.229286
53.24944 -33.4787 38.229286
72.4627 -44.57148 38.229286
77.51147 -42.17257 38.229286
75.20745 -46.156162 38.229286
36.780926 -23.970598 38.229286
39.45449 -20.200363 38.229286
74.58401 -40.482395 38.229286
51.16433 -26.961042 38.229286
50.504684 -31.894014 38.229286
36.52703 -18.510193 38.229286
34.036175 -22.385916 38.229286
45.309406 -23.580704 38.229286
42.38195 -21.890532 38.229286
65.80163 -35.41189 38.229286
62.874165 -33.72172 12.029285
61.483696 -38.232746 12.029285
58.738945 -36.648064 12.029285
64.22845 -39.817432 12.029285
68.72909 -37.10206 12.029285
66.9732 -41.402115 12.029285
59.946705 -32.03155 12.029285
48.23687 -25.27087 12.029285
47.759933 -30.309328 12.029285
45.015182 -28.724646 12.029285
42.270428 -27.139963 12.029285
39.52568 -25.55528 12.029285
33.59957 -16.820023 12.029285
31.291424 -20.80123 12.029285
71.65655 -38.79223 12.029285
57.01925 -30.34138 12.029285
55.99419 -35.06338 12.029285
69.71795 -42.986794 12.029285
54.091785 -28.651209 12.029285
53.24944 -33.4787 12.029285
72.4627 -44.57148 12.029285
77.51147 -42.17257 12.029285
75.20745 -46.156162 12.029285
36.780926 -23.970596 12.029285
39.45449 -20.200361 12.029285
74.58401 -40.482395 12.029285
51.16433 -26.96104 12.029285
50.504684 -31.894012 12.029285
36.52703 -18.510191 12.029285
34.036175 -22.385914 12.029285
45.309406 -23.580702 12.029285
42.38195 -21.89053 12.029285
65.80163 -35.41189 12.029285
3 32 1 0
3 30 10 31
3 0 1 2
3 1 32 3
3 4 5 3
3 20 21 22
3 14 17 5
3 17 14 25
3 6 0 2
3 5 4 14
3 15 6 16
3 18 15 19
3 32 4 3
3 26 18 27
3 26 8 7
3 2 16 6
3 7 9 30
3 16 19 15
3 30 9 10
3 19 27 18
3 31 10 11
3 27 8 26
3 23 24 11
3 8 9 7
3 28 23 29
3 24 31 11
3 12 28 29
3 24 23 28
3 29 13 12
3 20 25 21
3 25 20 17
4 54 58 91 87
4 57 61 94 90
4 60 52 85 93
4 46 62 95 79
4 64 57 90 97
4 41 60 93 74
4 37 65 98 70
4 65 33 66 98
4 45 46 79 78
4 44 43 76 77
4 43 42 75 76
4 33 39 72 66
4 36 38 71 69
4 48 51 84 81
4 38 50 83 71
4 62 56 89 95
4 51 59 92 84
4 55 54 87 88
4 61 45 78 94
4 40 63 96 73
4 49 35 68 82
4 59 40 73 92
4 58 47 80 91
4 63 64 97 96
4 42 41 74 75
4 39 48 81 72
4 47 37 70 80
4 34 36 69 67
4 35 34 67 68
4 50 53 86 83
4 56 44 77 89
4 52 49 82 85
4 53 55 88 86
3 98 66 67
3 96 97 76
3 66 68 67
3 67 69 98
3 70 69 71
3 86 88 87
3 80 71 83
3 83 91 80
3 72 68 66
3 71 80 70
3 81 82 72
3 84 85 81
3 98 69 70
3 92 93 84
3 92 73 74
3 68 72 82
3 73 96 75
3 82 81 85
3 96 76 75
3 85 84 93
3 97 77 76
3 93 92 74
3 89 77 90
3 74 73 75
3 94 95 89
3 90 77 97
3 78 95 94
3 90 94 89
3 95 78 79
3 86 87 91
3 91 83 86
