ply
format ascii 1.0
comment Created in Blender version 4.3.1
element vertex 99
property float x
property float y
property float z
element face 95
property list uchar uint vertex_indices
end_header
-66.59713 -35.71475 38.229286
-63.56841 -39.279934 38.229286
-66.49587 -40.970104 38.229286
-58.362877 -30.960701 38.229286
-55.618122 -29.376019 38.229286
-63.852375 -34.130066 38.229286
-69.34188 -37.299435 38.229286
-69.423325 -42.660275 38.229286
-72.08663 -38.884113 38.229286
-61.107624 -32.545383 38.229286
-52.87337 -27.791334 38.229286
-50.12862 -26.20665 38.229286
-48.93111 -30.829088 38.229286
-40.14873 -25.758577 38.229286
-37.221275 -24.068409 38.229286
-36.404858 -18.283236 38.229286
-31.366354 -20.68807 38.229286
-34.29381 -22.378239 38.229286
-72.350784 -44.350445 38.229286
-47.383865 -24.621967 38.229286
-46.00365 -29.138918 38.229286
-39.14961 -19.867918 38.229286
-33.660107 -16.698551 38.229286
-60.640945 -37.589764 38.229286
-74.83138 -40.4688 38.229286
-75.27825 -46.040615 38.229286
-43.07619 -27.44875 38.229286
-77.57613 -42.053482 38.229286
-44.639114 -23.037285 38.229286
-57.71349 -35.899597 38.229286
-54.78603 -34.209427 38.229286
-41.89436 -21.452602 38.229286
-51.858574 -32.519257 38.229286
-66.59713 -35.71475 38.229286
-63.56841 -39.279934 38.229286
-66.49587 -40.970104 38.229286
-58.362877 -30.960701 38.229286
-55.618122 -29.376019 38.229286
-63.852375 -34.130066 38.229286
-69.34188 -37.299435 38.229286
-69.423325 -42.660275 38.229286
-72.08663 -38.884113 38.229286
-61.107624 -32.545383 38.229286
-52.87337 -27.791334 38.229286
-50.12862 -26.20665 38.229286
-48.93111 -30.829088 38.229286
-40.14873 -25.758577 38.229286
-37.221275 -24.068409 38.229286
-36.404858 -18.283236 38.229286
-31.366354 -20.68807 38.229286
-34.29381 -22.378239 38.229286
-72.350784 -44.350445 38.229286
-47.383865 -24.621967 38.229286
-46.00365 -29.138918 38.229286
-39.14961 -19.867918 38.229286
-33.660107 -16.698551 38.229286
-60.640945 -37.589764 38.229286
-74.83138 -40.4688 38.229286
-75.27825 -46.040615 38.229286
-43.07619 -27.44875 38.229286
-77.57613 -42.053482 38.229286
-44.639114 -23.037285 38.229286
-57.71349 -35.899597 38.229286
-54.78603 -34.209427 38.229286
-41.89436 -21.452602 38.229286
-51.858574 -32.519257 38.229286
-66.59713 -35.71475 12.029285
-63.56841 -39.279934 12.029285
-66.49587 -40.970104 12.029285
-58.362877 -30.9607 12.029285
-55.618122 -29.376017 12.029285
-63.852375 -34.130066 12.029285
-69.34188 -37.299435 12.029285
-69.423325 -42.660275 12.029285
-72.08663 -38.884113 12.029285
-61.107624 -32.545383 12.029285
-52.87337 -27.791332 12.029285
-50.12862 -26.206648 12.029285
-48.93111 -30.829086 12.029285
-40.14873 -25.758575 12.029285
-37.221275 -24.068407 12.029285
-36.404858 -18.283234 12.029285
-31.366354 -20.688068 12.029285
-34.29381 -22.378237 12.029285
-72.350784 -44.350445 12.029285
-47.383865 -24.621965 12.029285
-46.00365 -29.138916 12.029285
-39.14961 -19.867916 12.029285
-33.660107 -16.69855 12.029285
-60.640945 -37.589764 12.029285
-74.83138 -40.4688 12.029285
-75.27825 -46.040615 12.029285
-43.07619 -27.448748 12.029285
-77.57613 -42.053482 12.029285
-44.639114 -23.037283 12.029285
-57.71349 -35.899597 12.029285
-54.78603 -34.209427 12.029285
-41.89436 -21.4526 12.029285
-51.858574 -32.519257 12.029285
3 0 1 2
3 29 3 30
3 15 16 17
3 5 9 23
3 3 4 30
3 5 1 0
3 5 23 1
3 29 23 9
3 2 7 6
3 0 2 6
3 7 18 8
3 6 7 8
3 29 9 3
3 8 18 24
3 24 18 25
3 27 24 25
3 32 4 10
3 4 32 30
3 11 12 10
3 32 10 12
3 11 19 20
3 20 12 11
3 26 19 28
3 19 26 20
3 31 13 28
3 26 28 13
3 31 21 14
3 14 13 31
3 17 21 15
3 21 17 14
3 15 22 16
4 55 48 81 88
4 48 54 87 81
4 52 44 77 85
4 51 40 73 84
4 40 35 68 73
4 35 34 67 68
4 49 55 88 82
4 53 59 92 86
4 58 51 84 91
4 59 46 79 92
4 60 58 91 93
4 54 64 97 87
4 65 45 78 98
4 63 65 98 96
4 43 37 70 76
4 46 47 80 79
4 44 43 76 77
4 36 42 75 69
4 39 41 74 72
4 33 39 72 66
4 38 33 66 71
4 37 36 69 70
4 47 50 83 80
4 45 53 86 78
4 41 57 90 74
4 34 56 89 67
4 50 49 82 83
4 61 52 85 94
4 57 60 93 90
4 42 38 71 75
4 64 61 94 97
4 56 62 95 89
4 62 63 96 95
3 66 68 67
3 95 96 69
3 81 83 82
3 71 89 75
3 69 96 70
3 71 66 67
3 71 67 89
3 95 75 89
3 68 72 73
3 66 72 68
3 73 74 84
3 72 74 73
3 95 69 75
3 74 90 84
3 90 91 84
3 93 91 90
3 98 76 70
3 70 96 98
3 77 76 78
3 98 78 76
3 77 86 85
3 86 77 78
3 92 94 85
3 85 86 92
3 97 94 79
3 92 79 94
3 97 80 87
3 80 97 79
3 83 81 87
3 87 80 83
3 81 82 88
