ply
format ascii 1.0
comment Created in Blender version 4.3.1
element vertex 99
property float x
property float y
property float z
element face 95
property list uchar uint vertex_indices
end_header
-35.06338 -55.99419 38.229286
-32.03155 -59.946705 38.229286
-36.648064 -58.738945 38.229286
-33.4787 -53.24944 38.229286
-30.341381 -57.01925 38.229286
-39.817432 -64.22845 38.229286
-37.10206 -68.72909 38.229286
-41.402115 -66.9732 38.229286
-25.270872 -48.23687 38.229286
-28.724648 -45.015182 38.229286
-23.580704 -45.309406 38.229286
-38.232746 -61.483696 38.229286
-33.72172 -62.874165 38.229286
-38.79223 -71.65655 38.229286
-21.890532 -42.38195 38.229286
-27.139965 -42.270428 38.229286
-42.986794 -69.71795 38.229286
-40.482395 -74.58401 38.229286
-44.57148 -72.4627 38.229286
-42.17257 -77.51147 38.229282
-28.65121 -54.091785 38.229286
-25.555283 -39.52568 38.229286
-20.200363 -39.45449 38.229286
-23.970598 -36.780926 38.229286
-22.385916 -34.036175 38.229286
-18.510193 -36.52703 38.229286
-26.961042 -51.16433 38.229286
-31.894014 -50.504684 38.229286
-35.41189 -65.80163 38.229286
-30.30933 -47.759933 38.229286
-16.820024 -33.59957 38.229286
-20.801231 -31.291424 38.229286
-46.156162 -75.20745 38.229286
-35.06338 -55.99419 38.229286
-32.03155 -59.946705 38.229286
-36.648064 -58.738945 38.229286
-33.4787 -53.24944 38.229286
-30.341381 -57.01925 38.229286
-39.817432 -64.22845 38.229286
-37.10206 -68.72909 38.229286
-41.402115 -66.9732 38.229286
-25.270872 -48.23687 38.229286
-28.724648 -45.015182 38.229286
-23.580704 -45.309406 38.229286
-38.232746 -61.483696 38.229286
-33.72172 -62.874165 38.229286
-38.79223 -71.65655 38.229286
-21.890532 -42.38195 38.229286
-27.139965 -42.270428 38.229286
-42.986794 -69.71795 38.229286
-40.482395 -74.58401 38.229286
-44.57148 -72.4627 38.229286
-42.17257 -77.51147 38.229282
-28.65121 -54.091785 38.229286
-25.555283 -39.52568 38.229286
-20.200363 -39.45449 38.229286
-23.970598 -36.780926 38.229286
-22.385916 -34.036175 38.229286
-18.510193 -36.52703 38.229286
-26.961042 -51.16433 38.229286
-31.894014 -50.504684 38.229286
-35.41189 -65.80163 38.229286
-30.30933 -47.759933 38.229286
-16.820024 -33.59957 38.229286
-20.801231 -31.291424 38.229286
-46.156162 -75.20745 38.229286
-35.06338 -55.99419 12.029285
-32.03155 -59.946705 12.029285
-36.648064 -58.738945 12.029285
-33.4787 -53.24944 12.029285
-30.341381 -57.01925 12.029285
-39.817432 -64.22845 12.029285
-37.10206 -68.72909 12.029285
-41.402115 -66.9732 12.029285
-25.270872 -48.23687 12.029285
-28.724648 -45.015182 12.029285
-23.580704 -45.309406 12.029285
-38.232746 -61.483696 12.029285
-33.72172 -62.874165 12.029285
-38.79223 -71.65655 12.029285
-21.890532 -42.38195 12.029285
-27.139965 -42.270428 12.029285
-42.986794 -69.71795 12.029285
-40.482395 -74.58401 12.029285
-44.57148 -72.4627 12.029285
-42.17257 -77.51147 12.029282
-28.65121 -54.091785 12.029285
-25.555283 -39.52568 12.029285
-20.200363 -39.45449 12.029285
-23.970598 -36.780926 12.029285
-22.385916 -34.036175 12.029285
-18.510193 -36.52703 12.029285
-26.961042 -51.16433 12.029285
-31.894014 -50.504684 12.029285
-35.41189 -65.80163 12.029285
-30.30933 -47.759933 12.029285
-16.820024 -33.59957 12.029285
-20.801231 -31.291422 12.029285
-46.156162 -75.20745 12.029285
3 23 24 25
3 31 30 24
3 0 1 2
3 0 3 4
3 4 1 0
3 11 2 12
3 12 28 11
3 28 6 5
3 5 11 28
3 1 12 2
3 6 7 5
3 17 16 13
3 7 13 16
3 18 17 19
3 18 16 17
3 19 32 18
3 7 6 13
3 3 20 4
3 26 20 27
3 3 27 20
3 29 8 26
3 26 27 29
3 8 9 10
3 9 8 29
3 14 10 15
3 9 15 10
3 21 22 14
3 14 15 21
3 22 23 25
3 23 22 21
3 24 30 25
4 43 47 80 76
4 46 39 72 79
4 35 44 77 68
4 47 55 88 80
4 37 53 86 70
4 52 50 83 85
4 50 46 79 83
4 55 58 91 88
4 59 41 74 92
4 49 51 84 82
4 44 38 71 77
4 42 62 95 75
4 65 52 85 98
4 39 61 94 72
4 41 43 76 74
4 38 40 73 71
4 36 33 66 69
4 33 35 68 66
4 48 42 75 81
4 40 49 82 73
4 45 34 67 78
4 34 37 70 67
4 56 54 87 89
4 54 48 81 87
4 60 36 69 93
4 53 59 92 86
4 57 56 89 90
4 58 63 96 91
4 62 60 93 95
4 51 65 98 84
4 61 45 78 94
3 89 91 90
3 97 90 96
3 66 68 67
3 66 70 69
3 70 66 67
3 77 78 68
3 78 77 94
3 94 71 72
3 71 94 77
3 67 68 78
3 72 71 73
3 83 79 82
3 73 82 79
3 84 85 83
3 84 83 82
3 85 84 98
3 73 79 72
3 69 70 86
3 92 93 86
3 69 86 93
3 95 92 74
3 92 95 93
3 74 76 75
3 75 95 74
3 80 81 76
3 75 76 81
3 87 80 88
3 80 87 81
3 88 91 89
3 89 87 88
3 90 91 96
4 63 64 97 96
4 64 57 90 97
