ply
format ascii 1.0
comment Created in Blender version 4.3.1
element vertex 99
property float x
property float y
property float z
element face 95
property list uchar uint vertex_indices
end_header
2.3686836 50.17725 38.22929
-2.2332172 51.029453 38.22929
2.3686836 53.346615 38.22929
2.3686836 59.68535 38.22929
-2.2332172 57.79013 38.22929
-2.2332172 61.170467 38.22929
2.3686836 62.854717 38.22929
2.3686836 75.53218 38.22929
-2.2332172 78.07217 38.22929
2.3686836 78.70155 38.22929
-2.2332172 81.4525 38.22929
2.3686836 81.87091 38.22929
-2.2332172 84.83284 38.22929
2.3686836 47.007885 38.22929
-2.2332172 44.268772 38.22929
2.3686836 43.838516 38.22929
-2.2332172 40.88843 38.22929
-2.2332172 54.40979 38.22929
-2.2332165 88.21318 38.22929
2.3686836 88.20965 38.22929
2.3686836 40.66915 38.22929
2.3686836 72.362816 38.22929
-2.2332172 71.311485 38.22929
-2.2332172 74.69182 38.22929
2.3686836 56.51598 38.22929
-2.2332172 64.55081 38.22929
2.3686836 69.19345 38.22929
2.3686836 66.024086 38.22929
-2.2332172 67.931145 38.22929
2.3686836 85.040276 38.22929
2.3686829 37.499783 38.22929
-2.2332172 37.508095 38.22929
-2.2332172 47.64911 38.22929
2.3686836 50.17725 38.22929
-2.2332172 51.029453 38.22929
2.3686836 53.346615 38.22929
2.3686836 59.68535 38.22929
-2.2332172 57.79013 38.22929
-2.2332172 61.170467 38.22929
2.3686836 62.854717 38.22929
2.3686836 75.53218 38.22929
-2.2332172 78.07217 38.22929
2.3686836 78.70155 38.22929
-2.2332172 81.4525 38.22929
2.3686836 81.87091 38.22929
-2.2332172 84.83284 38.22929
2.3686836 47.007885 38.22929
-2.2332172 44.268772 38.22929
2.3686836 43.838516 38.22929
-2.2332172 40.88843 38.22929
-2.2332172 54.40979 38.22929
-2.2332165 88.21318 38.22929
2.3686836 88.20965 38.22929
2.3686836 40.66915 38.22929
2.3686836 72.362816 38.22929
-2.2332172 71.311485 38.22929
-2.2332172 74.69182 38.22929
2.3686836 56.51598 38.22929
-2.2332172 64.55081 38.22929
2.3686836 69.19345 38.22929
2.3686836 66.024086 38.22929
-2.2332172 67.931145 38.22929
2.3686836 85.040276 38.22929
2.3686829 37.499783 38.22929
-2.2332172 37.508095 38.22929
-2.2332172 47.64911 38.22929
2.3686836 50.17725 12.029289
-2.2332172 51.029453 12.029289
2.3686836 53.346615 12.029289
2.3686836 59.68535 12.029289
-2.2332172 57.79013 12.029289
-2.2332172 61.170467 12.029289
2.3686836 62.854717 12.029289
2.3686836 75.53218 12.029289
-2.2332172 78.07217 12.029289
2.3686836 78.70155 12.029289
-2.2332172 81.4525 12.029289
2.3686836 81.87091 12.029289
-2.2332172 84.83284 12.029289
2.3686836 47.007885 12.029289
-2.2332172 44.268772 12.029289
2.3686836 43.838516 12.029289
-2.2332172 40.88843 12.029289
-2.2332172 54.40979 12.029289
-2.2332165 88.21318 12.029289
2.3686836 88.20965 12.029289
2.3686836 40.66915 12.029289
2.3686836 72.362816 12.029289
-2.2332172 71.311485 12.029289
-2.2332172 74.69182 12.029289
2.3686836 56.51598 12.029289
-2.2332172 64.55081 12.029289
2.3686836 69.19345 12.029289
2.3686836 66.024086 12.029289
-2.2332172 67.931145 12.029289
2.3686836 85.040276 12.029289
2.3686829 37.499783 12.029289
-2.2332172 37.508095 12.029289
-2.2332172 47.64911 12.029289
3 32 1 0
3 2 0 1
3 2 17 24
3 3 24 4
3 4 5 3
3 6 3 5
3 5 25 6
3 26 27 28
3 25 28 27
3 26 22 21
3 1 17 2
3 23 7 21
3 21 22 23
3 8 7 23
3 7 8 9
3 10 9 8
3 9 10 11
3 12 11 10
3 11 12 29
3 18 29 12
3 29 18 19
3 26 28 22
3 27 6 25
3 4 24 17
3 13 14 32
3 32 0 13
3 14 15 16
3 15 14 13
3 31 16 20
3 15 20 16
3 31 20 30
4 56 55 88 89
4 59 54 87 92
4 60 59 92 93
4 58 38 71 91
4 35 57 90 68
4 39 60 93 72
4 51 45 78 84
4 57 36 69 90
4 48 46 79 81
4 65 47 80 98
4 62 52 85 95
4 42 44 77 75
4 41 56 89 74
4 61 58 91 94
4 34 65 98 67
4 47 49 82 80
4 46 33 66 79
4 45 43 76 78
4 40 42 75 73
4 36 39 72 69
4 53 48 81 86
4 33 35 68 66
4 54 40 73 87
4 64 63 96 97
4 49 64 97 82
4 55 61 94 88
4 37 50 83 70
4 43 41 74 76
4 52 51 84 85
4 50 34 67 83
4 38 37 70 71
3 98 66 67
3 68 67 66
3 68 90 83
3 69 70 90
3 70 69 71
3 72 71 69
3 71 72 91
3 92 94 93
3 91 93 94
3 92 87 88
3 67 68 83
3 89 87 73
3 87 89 88
3 74 89 73
3 73 75 74
3 76 74 75
3 75 77 76
3 78 76 77
3 77 95 78
3 84 78 95
3 95 85 84
3 92 88 94
3 93 91 72
3 70 83 90
3 79 98 80
3 98 79 66
3 80 82 81
3 81 79 80
3 97 86 82
3 81 82 86
3 97 96 86
4 44 62 95 77
4 63 53 86 96
