ply
format ascii 1.0
comment Created in Blender version 4.3.1
element vertex 99
property float x
property float y
property float z
element face 95
property list uchar uint vertex_indices
end_header
-34.036175 22.385916 38.229286
-31.291424 20.801231 38.229286
-33.59957 16.820024 38.229286
-36.52703 18.510193 38.229286
-36.780926 23.970598 38.229286
-45.309406 23.580704 38.229286
-42.270428 27.139965 38.229286
-48.23687 25.270872 38.229286
-45.015182 28.724648 38.229286
-53.24944 33.4787 38.22929
-57.01925 30.341381 38.229286
-55.99419 35.06338 38.22929
-61.483696 38.232746 38.22929
-65.80163 35.41189 38.22929
-64.22845 39.817432 38.22929
-74.58401 40.482395 38.22929
-77.51147 42.17257 38.22929
-59.946705 32.03155 38.229286
-68.72909 37.10206 38.22929
-75.20745 46.156162 38.22929
-47.759933 30.30933 38.229286
-58.738945 36.648064 38.22929
-66.9732 41.402115 38.22929
-39.45449 20.200363 38.229286
-51.16433 26.961042 38.229286
-71.65655 38.79223 38.22929
-69.71795 42.986794 38.22929
-39.52568 25.555283 38.229286
-50.504684 31.894014 38.229286
-42.38195 21.890532 38.229286
-54.091785 28.65121 38.229286
-62.874165 33.72172 38.22929
-72.4627 44.57148 38.22929
-34.036175 22.385916 38.229286
-31.291424 20.801231 38.229286
-33.59957 16.820024 38.229286
-36.52703 18.510193 38.229286
-36.780926 23.970598 38.229286
-45.309406 23.580704 38.229286
-42.270428 27.139965 38.229286
-48.23687 25.270872 38.229286
-45.015182 28.724648 38.229286
-53.24944 33.4787 38.22929
-57.01925 30.341381 38.229286
-55.99419 35.06338 38.22929
-61.483696 38.232746 38.22929
-65.80163 35.41189 38.22929
-64.22845 39.817432 38.22929
-74.58401 40.482395 38.22929
-77.51147 42.17257 38.22929
-59.946705 32.03155 38.229286
-68.72909 37.10206 38.22929
-75.20745 46.156162 38.22929
-47.759933 30.30933 38.229286
-58.738945 36.648064 38.22929
-66.9732 41.402115 38.22929
-39.45449 20.200363 38.229286
-51.16433 26.961042 38.229286
-71.65655 38.79223 38.22929
-69.71795 42.986794 38.22929
-39.52568 25.555283 38.229286
-50.504684 31.894014 38.229286
-42.38195 21.890532 38.229286
-54.091785 28.65121 38.229286
-62.874165 33.72172 38.22929
-72.4627 44.57148 38.22929
-34.036175 22.385918 12.029285
-31.291424 20.801233 12.029285
-33.59957 16.820026 12.029285
-36.52703 18.510195 12.029285
-36.780926 23.9706 12.029285
-45.309406 23.580706 12.029285
-42.270428 27.139967 12.029285
-48.23687 25.270874 12.029285
-45.015182 28.72465 12.029285
-53.24944 33.4787 12.029289
-57.01925 30.341383 12.029285
-55.99419 35.06338 12.029289
-61.483696 38.232746 12.029289
-65.80163 35.41189 12.029289
-64.22845 39.817432 12.029289
-74.58401 40.482395 12.029289
-77.51147 42.17257 12.029289
-59.946705 32.03155 12.029285
-68.72909 37.10206 12.029289
-75.20745 46.156162 12.029289
-47.759933 30.309332 12.029285
-58.738945 36.648064 12.029289
-66.9732 41.402115 12.029289
-39.45449 20.200365 12.029285
-51.16433 26.961044 12.029285
-71.65655 38.79223 12.029289
-69.71795 42.986794 12.029289
-39.52568 25.555285 12.029285
-50.504684 31.894016 12.029285
-42.38195 21.890533 12.029285
-54.091785 28.651213 12.029285
-62.874165 33.72172 12.029289
-72.4627 44.57148 12.029289
3 0 1 2
3 3 23 4
3 0 3 4
3 27 23 29
3 23 27 4
3 5 6 29
3 27 29 6
3 5 7 8
3 3 0 2
3 20 24 28
3 20 8 7
3 7 24 20
3 30 9 28
3 30 28 24
3 9 30 10
3 8 6 5
3 11 9 10
3 31 21 17
3 21 11 17
3 12 31 13
3 11 10 17
3 21 31 12
3 13 14 12
3 22 14 18
3 25 26 22
3 18 25 22
3 26 15 32
3 25 15 26
3 15 16 32
3 18 14 13
3 19 32 16
4 63 57 90 96
4 60 39 72 93
4 55 59 92 88
4 39 41 74 72
4 48 58 91 81
4 36 35 68 69
4 35 34 67 68
4 46 64 97 79
4 64 50 83 97
4 57 40 73 90
4 56 36 69 89
4 65 52 85 98
4 54 45 78 87
4 61 42 75 94
4 62 56 89 95
4 49 48 81 82
4 45 47 80 78
4 42 44 77 75
4 47 55 88 80
4 44 54 87 77
4 43 63 96 76
4 38 62 95 71
4 58 51 84 91
4 40 38 71 73
4 33 37 70 66
4 41 53 86 74
4 34 33 66 67
4 53 61 94 86
4 37 60 93 70
4 59 65 98 92
3 66 68 67
3 69 70 89
3 66 70 69
3 93 95 89
3 89 70 93
3 71 95 72
3 93 72 95
3 71 74 73
3 69 68 66
3 86 94 90
3 86 73 74
3 73 86 90
3 96 94 75
3 96 90 94
3 75 76 96
3 74 71 72
3 77 76 75
3 97 83 87
3 87 83 77
3 78 79 97
3 77 83 76
3 87 78 97
3 79 78 80
3 88 84 80
3 91 88 92
3 84 88 91
3 92 98 81
3 91 92 81
3 81 98 82
3 84 79 80
3 85 82 98
4 50 43 76 83
4 51 46 79 84
4 52 49 82 85
