ply
format ascii 1.0
comment Created in Blender version 4.3.1
element vertex 99
property float x
property float y
property float z
element face 95
property list uchar uint vertex_indices
end_header
72.362816 -2.368684 38.229286
69.19345 -2.368684 38.229286
78.07217 2.2332168 38.229286
75.53218 -2.368684 38.229286
40.66915 -2.368684 38.229286
43.838516 -2.368684 38.229286
78.70155 -2.368684 38.229286
81.4525 2.2332168 38.229286
37.499783 -2.3686833 38.229286
37.508095 2.2332168 38.229286
44.268772 2.2332168 38.229286
47.007885 -2.368684 38.229286
47.64911 2.2332168 38.229286
57.79013 2.2332168 38.229286
56.51598 -2.368684 38.229286
54.40979 2.2332168 38.229286
62.854717 -2.368684 38.229286
64.55081 2.2332168 38.229286
66.024086 -2.368684 38.229286
59.68535 -2.368684 38.229286
61.170467 2.2332168 38.229286
53.346615 -2.368684 38.229286
51.029453 2.2332168 38.229286
81.87091 -2.368684 38.229286
67.931145 2.2332168 38.229286
84.83284 2.2332168 38.229286
88.21318 2.233216 38.229286
85.040276 -2.368684 38.229286
50.17725 -2.368684 38.229286
74.69182 2.2332168 38.229286
71.311485 2.2332168 38.229286
88.20965 -2.368684 38.229286
40.88843 2.2332168 38.229286
72.362816 -2.368684 38.229286
69.19345 -2.368684 38.229286
78.07217 2.2332168 38.229286
75.53218 -2.368684 38.229286
40.66915 -2.368684 38.229286
43.838516 -2.368684 38.229286
78.70155 -2.368684 38.229286
81.4525 2.2332168 38.229286
37.499783 -2.3686833 38.229286
37.508095 2.2332168 38.229286
44.268772 2.2332168 38.229286
47.007885 -2.368684 38.229286
47.64911 2.2332168 38.229286
57.79013 2.2332168 38.229286
56.51598 -2.368684 38.229286
54.40979 2.2332168 38.229286
62.854717 -2.368684 38.229286
64.55081 2.2332168 38.229286
66.024086 -2.368684 38.229286
59.68535 -2.368684 38.229286
61.170467 2.2332168 38.229286
53.346615 -2.368684 38.229286
51.029453 2.2332168 38.229286
81.87091 -2.368684 38.229286
67.931145 2.2332168 38.229286
84.83284 2.2332168 38.229286
88.21318 2.233216 38.229286
85.040276 -2.368684 38.229286
50.17725 -2.368684 38.229286
74.69182 2.2332168 38.229286
71.311485 2.2332168 38.229286
88.20965 -2.368684 38.229286
40.88843 2.2332168 38.229286
72.362816 -2.3686829 12.029285
69.19345 -2.3686829 12.029285
78.07217 2.233218 12.029285
75.53218 -2.3686829 12.029285
40.66915 -2.3686829 12.029285
43.838516 -2.3686829 12.029285
78.70155 -2.3686829 12.029285
81.4525 2.233218 12.029285
37.499783 -2.3686821 12.029285
37.508095 2.233218 12.029285
44.268772 2.233218 12.029285
47.007885 -2.3686829 12.029285
47.64911 2.233218 12.029285
57.79013 2.233218 12.029285
56.51598 -2.3686829 12.029285
54.40979 2.233218 12.029285
62.854717 -2.3686829 12.029285
64.55081 2.233218 12.029285
66.024086 -2.3686829 12.029285
59.68535 -2.3686829 12.029285
61.170467 2.233218 12.029285
53.346615 -2.3686829 12.029285
51.029453 2.233218 12.029285
81.87091 -2.3686829 12.029285
67.931145 2.233218 12.029285
84.83284 2.233218 12.029285
88.21318 2.2332172 12.029285
85.040276 -2.3686829 12.029285
50.17725 -2.3686829 12.029285
74.69182 2.233218 12.029285
71.311485 2.233218 12.029285
88.20965 -2.3686829 12.029285
40.88843 2.233218 12.029285
3 16 17 18
3 29 0 30
3 16 19 20
3 17 24 18
3 0 1 30
3 25 26 27
3 2 3 29
3 0 29 3
3 20 19 13
3 13 14 15
3 15 14 21
3 15 21 22
3 1 18 24
3 32 5 4
3 20 17 16
3 32 10 5
3 13 19 14
3 28 22 21
3 11 10 12
3 5 10 11
3 2 6 3
3 7 6 2
3 6 7 23
3 7 25 23
3 27 23 25
3 26 31 27
3 1 24 30
3 28 12 22
3 28 11 12
3 8 9 4
3 32 4 9
4 44 61 94 77
4 58 40 73 91
4 61 54 87 94
4 65 42 75 98
4 50 53 86 83
4 63 57 90 96
4 59 58 91 92
4 57 50 83 90
4 64 59 92 97
4 43 65 98 76
4 41 37 70 74
4 40 35 68 73
4 37 38 71 70
4 33 36 69 66
4 34 33 66 67
4 45 43 76 78
4 42 41 74 75
4 46 48 81 79
4 47 52 85 80
4 51 34 67 84
4 54 47 80 87
4 55 45 78 88
4 60 64 97 93
4 56 60 93 89
4 35 62 95 68
4 62 63 96 95
4 36 39 72 69
4 38 44 77 71
4 39 56 89 72
4 48 55 88 81
4 53 46 79 86
4 52 49 82 85
3 82 84 83
3 95 96 66
3 82 86 85
3 83 84 90
3 66 96 67
3 91 93 92
3 68 95 69
3 66 69 95
3 86 79 85
3 79 81 80
3 81 87 80
3 81 88 87
3 67 90 84
3 98 70 71
3 86 82 83
3 98 71 76
3 79 80 85
3 94 87 88
3 77 78 76
3 71 77 76
3 68 69 72
3 73 68 72
3 72 89 73
3 73 89 91
3 93 91 89
3 92 93 97
3 67 96 90
3 94 88 78
3 94 78 77
3 74 70 75
3 98 75 70
4 49 51 84 82
