ply
format ascii 1.0
comment Created in Blender version 4.3.1
element vertex 827
property float x
property float y
property float z
element face 492
property list uchar uint vertex_indices
end_header
-34.036175 22.385916 38.229286
-31.291424 20.801231 38.229286
-33.59957 16.820024 38.229286
-36.52703 18.510193 38.229286
-36.780926 23.970598 38.229286
-45.309406 23.580704 38.229286
-42.270428 27.139965 38.229286
-48.23687 25.270872 38.229286
-45.015182 28.724648 38.229286
-53.24944 33.4787 38.22929
-57.01925 30.341381 38.229286
34.209427 -54.78603 38.229286
30.960701 -58.362877 38.229286
29.376019 -55.618122 38.229286
39.279934 -63.56841 38.229286
40.970104 -66.49587 38.229286
35.71475 -66.59713 38.229286
40.4688 -74.83138 38.229286
42.053482 -77.57613 38.229282
32.519257 -51.858574 38.229286
30.829088 -48.93111 38.229286
29.138918 -46.00365 38.229286
19.867918 -39.14961 38.229286
22.378239 -34.29381 38.229286
18.283236 -36.404858 38.229286
-2.3686836 -75.53218 38.229286
-2.3686836 -78.70155 38.229282
2.2332172 -61.170467 38.229286
-2.3686836 -59.68535 38.229286
2.2332172 -57.79013 38.229286
-2.3686836 -47.007885 38.229286
2.2332172 -47.64911 38.229286
-2.3686836 -43.838516 38.229286
2.2332172 -44.268772 38.229286
-2.3686836 -40.66915 38.229286
2.2332172 -40.88843 38.229286
-35.06338 -55.99419 38.229286
-32.03155 -59.946705 38.229286
-36.648064 -58.738945 38.229286
-33.4787 -53.24944 38.229286
-30.341381 -57.01925 38.229286
-39.817432 -64.22845 38.229286
-37.10206 -68.72909 38.229286
-41.402115 -66.9732 38.229286
-66.59713 -35.71475 38.229286
-63.56841 -39.279934 38.229286
-66.49587 -40.970104 38.229286
-25.270872 -48.23687 38.229286
-28.724648 -45.015182 38.229286
-23.580704 -45.309406 38.229286
-58.362877 -30.960701 38.229286
-55.618122 -29.376019 38.229286
-63.852375 -34.130066 38.229286
-69.34188 -37.299435 38.229286
-69.423325 -42.660275 38.229286
-72.08663 -38.884113 38.229286
-61.107624 -32.545383 38.229286
-52.87337 -27.791334 38.229286
-50.12862 -26.20665 38.229286
-48.93111 -30.829088 38.229286
-40.14873 -25.758577 38.229286
-37.221275 -24.068409 38.229286
-81.4525 -2.2332177 38.229286
-84.83284 -2.2332177 38.229286
-61.170467 -2.2332177 38.229286
-57.79013 -2.2332177 38.229286
-59.68535 2.368683 38.229286
-47.007885 2.368683 38.229286
-47.64911 -2.2332177 38.229286
-50.17725 2.368683 38.229286
-55.99419 35.06338 38.22929
-61.483696 38.232746 38.22929
-65.80163 35.41189 38.22929
-64.22845 39.817432 38.22929
-74.58401 40.482395 38.22929
-77.51147 42.17257 38.22929
-27.791334 52.87337 38.22929
-26.20665 50.12862 38.22929
-30.829088 48.93111 38.22929
-32.519257 51.858574 38.22929
-29.376019 55.618122 38.22929
-32.545383 61.107624 38.22929
-37.589764 60.640945 38.22929
-34.130066 63.852375 38.22929
2.3686836 50.17725 38.22929
-2.2332172 51.029453 38.22929
2.3686836 53.346615 38.22929
2.3686836 59.68535 38.22929
-2.2332172 57.79013 38.22929
-2.2332172 61.170467 38.22929
2.3686836 62.854717 38.22929
-40.4688 74.83138 38.22929
-46.040615 75.27825 38.22929
-42.053482 77.57613 38.22929
-23.037285 44.639114 38.22929
-21.452602 41.89436 38.22929
2.3686836 75.53218 38.22929
-2.2332172 78.07217 38.22929
2.3686836 78.70155 38.22929
-2.2332172 81.4525 38.22929
2.3686836 81.87091 38.22929
-2.2332172 84.83284 38.22929
25.270872 48.23687 38.22929
26.961042 51.16433 38.22929
2.3686836 47.007885 38.22929
-2.2332172 44.268772 38.22929
2.3686836 43.838516 38.22929
-2.2332172 40.88843 38.22929
37.10206 68.72909 38.22929
41.402115 66.9732 38.22929
38.79223 71.65655 38.22929
50.12862 26.20665 38.229286
48.93111 30.829088 38.229286
52.87337 27.791334 38.229286
55.618122 29.376019 38.229286
60.640945 37.589764 38.22929
61.107624 32.545383 38.229286
63.852375 34.130066 38.22929
30.341381 57.01925 38.22929
32.03155 59.946705 38.22929
35.06338 55.99419 38.22929
23.580704 45.309406 38.22929
69.423325 42.660275 38.22929
72.08663 38.884113 38.22929
72.350784 44.350445 38.22929
62.874165 -33.72172 38.229286
61.483696 -38.232746 38.229286
72.362816 -2.368684 38.229286
69.19345 -2.368684 38.229286
78.07217 2.2332168 38.229286
75.53218 -2.368684 38.229286
63.56841 39.279934 38.22929
40.66915 -2.368684 38.229286
43.838516 -2.368684 38.229286
34.29381 22.378239 38.229286
36.404858 18.283236 38.229286
78.70155 -2.368684 38.229286
81.4525 2.2332168 38.229286
58.738945 -36.648064 38.229286
64.22845 -39.817432 38.229286
68.72909 -37.10206 38.229286
66.9732 -41.402115 38.229286
59.946705 -32.03155 38.229286
48.23687 -25.270872 38.229286
47.759933 -30.30933 38.229286
45.015182 -28.724648 38.229286
42.270428 -27.139965 38.229286
39.52568 -25.555283 38.229286
37.499783 -2.3686833 38.229286
37.508095 2.2332168 38.229286
33.59957 -16.820024 38.229286
31.291424 -20.801231 38.229286
42.660275 -69.423325 38.229286
37.299435 -69.34188 38.229286
32.545383 -61.107624 38.229286
24.621967 -47.383865 38.229286
27.44875 -43.07619 38.229286
2.2332172 -81.4525 38.229282
-2.3686836 -81.87091 38.229282
-2.3686836 -56.51598 38.229286
-38.232746 -61.483696 38.229286
-33.72172 -62.874165 38.229286
-38.79223 -71.65655 38.229286
-21.890532 -42.38195 38.229286
-27.139965 -42.270428 38.229286
-36.404858 -18.283236 38.229286
-31.366354 -20.68807 38.229286
-34.29381 -22.378239 38.229286
-72.350784 -44.350445 38.229286
-47.383865 -24.621967 38.229286
-46.00365 -29.138918 38.229286
-39.14961 -19.867918 38.229286
-33.660107 -16.698551 38.229286
-72.362816 2.368683 38.229286
-71.311485 -2.2332177 38.229286
-74.69182 -2.2332177 38.229286
-75.53218 2.368683 38.229286
-85.040276 2.368683 38.229286
-88.24144 -5.7530457e-07 38.229286
-88.21318 -2.233217 38.229286
-56.51598 2.368683 38.229286
-54.40979 -2.2332177 38.229286
-40.88843 -2.2332177 38.229286
-40.66915 2.368683 38.229286
-37.508095 -2.2332177 38.229286
-37.499783 2.3686824 38.229286
-59.946705 32.03155 38.229286
-68.72909 37.10206 38.22929
-75.20745 46.156162 38.22929
-39.279934 63.56841 38.22929
-29.138918 46.00365 38.22929
-24.068409 37.221275 38.22929
-19.867918 39.14961 38.22929
-2.2332172 54.40979 38.22929
20.200363 39.45449 38.22929
21.890532 42.38195 38.22929
25.555283 39.52568 38.22929
31.894014 50.504684 38.22929
28.65121 54.091785 38.22929
33.4787 53.24944 38.22929
-2.2332165 88.21318 38.22929
2.3686836 88.20965 38.22929
33.72172 62.874165 38.22929
38.232746 61.483696 38.22929
2.3686836 40.66915 38.22929
35.41189 65.80163 38.22929
42.986794 69.71795 38.22929
58.362877 30.960701 38.229286
54.78603 34.209427 38.22929
66.49587 40.970104 38.22929
66.59713 35.71475 38.22929
23.970598 36.780926 38.22929
18.510193 36.52703 38.22929
74.83138 40.4688 38.22929
44.268772 2.2332168 38.229286
47.007885 -2.368684 38.229286
47.64911 2.2332168 38.229286
71.65655 -38.79223 38.229286
57.01925 -30.341381 38.229286
55.99419 -35.06338 38.229286
-47.759933 30.30933 38.229286
2.2332172 -64.55081 38.229286
-2.3686836 -66.024086 38.229286
-2.3686836 -62.854717 38.229286
23.037285 -44.639114 38.229286
2.2332172 -67.931145 38.229286
2.2332172 -71.311485 38.229286
-2.3686836 -69.19345 38.229286
2.2332172 -84.83284 38.229282
-2.3686836 -53.346615 38.229286
2.2332172 -54.40979 38.229286
-42.986794 -69.71795 38.229286
-60.640945 -37.589764 38.229286
-74.83138 -40.4688 38.229286
-66.024086 2.368683 38.229286
-67.931145 -2.2332177 38.229286
-69.19345 2.368683 38.229286
-88.20965 2.368683 38.229286
-64.55081 -2.2332177 38.229286
-62.854717 2.368683 38.229286
-58.738945 36.648064 38.22929
-66.9732 41.402115 38.22929
-35.71475 66.59713 38.22929
-40.970104 66.49587 38.22929
-37.299435 69.34188 38.22929
-42.660275 69.423325 38.22929
-38.884113 72.08663 38.22929
-44.350445 72.350784 38.22929
2.3686836 72.362816 38.22929
-2.2332172 71.311485 38.22929
-24.621967 47.383865 38.22929
-22.378239 34.29381 38.22929
-2.2332172 74.69182 38.22929
36.648064 58.738945 38.22929
27.139965 42.270428 38.22929
39.817432 64.22845 38.22929
40.482395 74.58401 38.22929
44.57148 72.4627 38.22929
42.17257 77.51147 38.22929
69.34188 37.299435 38.22929
75.27825 46.040615 38.22929
77.57613 42.053482 38.22929
57.79013 2.2332168 38.229286
56.51598 -2.368684 38.229286
54.40979 2.2332168 38.229286
31.366354 20.68807 38.229286
33.660107 16.698551 38.229286
69.71795 -42.986794 38.229286
54.091785 -28.65121 38.229286
53.24944 -33.4787 38.229286
-39.45449 20.200363 38.229286
-51.16433 26.961042 38.229286
38.884113 -72.08663 38.229286
25.758577 -40.14873 38.229286
2.2332172 -37.508095 38.229286
-2.3686829 -37.499783 38.229286
2.2332172 -74.69182 38.229286
-2.3686836 -72.362816 38.229286
-2.3686836 -85.040276 38.229282
-40.482395 -74.58401 38.229286
-44.57148 -72.4627 38.229286
-42.17257 -77.51147 38.229282
-28.65121 -54.091785 38.229286
-25.555283 -39.52568 38.229286
-20.200363 -39.45449 38.229286
-75.27825 -46.040615 38.229286
-43.07619 -27.44875 38.229286
-78.07217 -2.2332177 38.229286
-53.346615 2.368683 38.229286
-71.65655 38.79223 38.22929
-69.71795 42.986794 38.22929
2.3686836 56.51598 38.22929
-2.2332172 64.55081 38.22929
2.3686836 69.19345 38.22929
2.3686836 66.024086 38.22929
-2.2332172 67.931145 38.22929
-34.209427 54.78603 38.22929
-18.283236 36.404858 38.22929
2.3686836 85.040276 38.22929
2.3686829 37.499783 38.22929
44.639114 23.037285 38.229286
43.07619 27.44875 38.229286
57.71349 35.899597 38.22929
62.854717 -2.368684 38.229286
64.55081 2.2332168 38.229286
66.024086 -2.368684 38.229286
41.89436 21.452602 38.229286
40.14873 25.758577 38.229286
22.385916 34.036175 38.22929
59.68535 -2.368684 38.229286
61.170467 2.2332168 38.229286
53.346615 -2.368684 38.229286
51.029453 2.2332168 38.229286
81.87091 -2.368684 38.229286
72.4627 -44.57148 38.229286
77.51147 -42.17257 38.229286
75.20745 -46.156162 38.229286
36.780926 -23.970598 38.229286
39.45449 -20.200363 38.229286
74.58401 -40.482395 38.229286
-39.52568 25.555283 38.229286
-50.504684 31.894014 38.229286
37.589764 -60.640945 38.229286
34.130066 -63.852375 38.229286
44.350445 -72.350784 38.229286
21.452602 -41.89436 38.229286
2.2332165 -88.21318 38.229282
-2.3686836 -88.20965 38.229282
2.2332172 -51.029453 38.229286
-23.970598 -36.780926 38.229286
-22.385916 -34.036175 38.229286
-18.510193 -36.52703 38.229286
-26.961042 -51.16433 38.229286
-31.894014 -50.504684 38.229286
-77.57613 -42.053482 38.229286
-44.639114 -23.037285 38.229286
-78.70155 2.368683 38.229286
-51.029453 -2.2332177 38.229286
-30.960701 58.362877 38.22929
-27.44875 43.07619 38.22929
-2.2332172 37.508095 38.22929
39.14961 19.867918 38.229286
37.221275 24.068409 38.229286
67.931145 2.2332168 38.229286
51.16433 -26.961042 38.229286
50.504684 -31.894014 38.229286
36.52703 -18.510193 38.229286
34.036175 -22.385916 38.229286
-42.38195 21.890532 38.229286
-54.091785 28.65121 38.229286
27.791334 -52.87337 38.229286
24.068409 -37.221275 38.229286
20.68807 -31.366354 38.229286
16.698551 -33.660107 38.229286
-2.3686836 -50.17725 38.229286
-35.41189 -65.80163 38.229286
-30.30933 -47.759933 38.229286
-81.87091 2.368683 38.229286
-62.874165 33.72172 38.22929
-35.899597 57.71349 38.22929
-25.758577 40.14873 38.22929
-20.68807 31.366354 38.229286
-16.698551 33.660107 38.22929
46.156162 75.20745 38.22929
84.83284 2.2332168 38.229286
88.21318 2.233216 38.229286
85.040276 -2.368684 38.229286
51.858574 32.519257 38.229286
50.17725 -2.368684 38.229286
46.040615 -75.27825 38.229286
26.20665 -50.12862 38.229286
2.2332172 -78.07217 38.229282
-16.820024 -33.59957 38.229286
-20.801231 -31.291424 38.229286
-46.156162 -75.20745 38.229286
-57.71349 -35.899597 38.229286
-54.78603 -34.209427 38.229286
-41.89436 -21.452602 38.229286
-44.268772 -2.2332177 38.229286
-43.838516 2.368683 38.229286
-72.4627 44.57148 38.22929
28.724648 45.015182 38.22929
30.30933 47.759933 38.22929
46.00365 29.138918 38.229286
47.383865 24.621967 38.229286
74.69182 2.2332168 38.229286
71.311485 2.2332168 38.229286
16.820024 33.59957 38.22929
20.801231 31.291424 38.229286
45.309406 -23.580704 38.229286
42.38195 -21.890532 38.229286
88.20965 -2.368684 38.229286
35.899597 -57.71349 38.229286
-51.858574 -32.519257 38.229286
-2.2332172 47.64911 38.22929
65.80163 -35.41189 38.229286
40.88843 2.2332168 38.229286
-34.036175 22.385916 38.229286
-31.291424 20.801231 38.229286
-33.59957 16.820024 38.229286
-36.52703 18.510193 38.229286
-36.780926 23.970598 38.229286
-45.309406 23.580704 38.229286
-42.270428 27.139965 38.229286
-48.23687 25.270872 38.229286
-45.015182 28.724648 38.229286
-53.24944 33.4787 38.22929
-57.01925 30.341381 38.229286
34.209427 -54.78603 38.229286
30.960701 -58.362877 38.229286
29.376019 -55.618122 38.229286
39.279934 -63.56841 38.229286
40.970104 -66.49587 38.229286
35.71475 -66.59713 38.229286
40.4688 -74.83138 38.229286
42.053482 -77.57613 38.229282
32.519257 -51.858574 38.229286
30.829088 -48.93111 38.229286
29.138918 -46.00365 38.229286
19.867918 -39.14961 38.229286
22.378239 -34.29381 38.229286
18.283236 -36.404858 38.229286
-2.3686836 -75.53218 38.229286
-2.3686836 -78.70155 38.229282
2.2332172 -61.170467 38.229286
-2.3686836 -59.68535 38.229286
2.2332172 -57.79013 38.229286
-2.3686836 -47.007885 38.229286
2.2332172 -47.64911 38.229286
-2.3686836 -43.838516 38.229286
2.2332172 -44.268772 38.229286
-2.3686836 -40.66915 38.229286
2.2332172 -40.88843 38.229286
-35.06338 -55.99419 38.229286
-32.03155 -59.946705 38.229286
-36.648064 -58.738945 38.229286
-33.4787 -53.24944 38.229286
-30.341381 -57.01925 38.229286
-39.817432 -64.22845 38.229286
-37.10206 -68.72909 38.229286
-41.402115 -66.9732 38.229286
-66.59713 -35.71475 38.229286
-63.56841 -39.279934 38.229286
-66.49587 -40.970104 38.229286
-25.270872 -48.23687 38.229286
-28.724648 -45.015182 38.229286
-23.580704 -45.309406 38.229286
-58.362877 -30.960701 38.229286
-55.618122 -29.376019 38.229286
-63.852375 -34.130066 38.229286
-69.34188 -37.299435 38.229286
-69.423325 -42.660275 38.229286
-72.08663 -38.884113 38.229286
-61.107624 -32.545383 38.229286
-52.87337 -27.791334 38.229286
-50.12862 -26.20665 38.229286
-48.93111 -30.829088 38.229286
-40.14873 -25.758577 38.229286
-37.221275 -24.068409 38.229286
-81.4525 -2.2332177 38.229286
-84.83284 -2.2332177 38.229286
-61.170467 -2.2332177 38.229286
-57.79013 -2.2332177 38.229286
-59.68535 2.368683 38.229286
-47.007885 2.368683 38.229286
-47.64911 -2.2332177 38.229286
-50.17725 2.368683 38.229286
-55.99419 35.06338 38.22929
-61.483696 38.232746 38.22929
-65.80163 35.41189 38.22929
-64.22845 39.817432 38.22929
-74.58401 40.482395 38.22929
-77.51147 42.17257 38.22929
-27.791334 52.87337 38.22929
-26.20665 50.12862 38.22929
-30.829088 48.93111 38.22929
-32.519257 51.858574 38.22929
-29.376019 55.618122 38.22929
-32.545383 61.107624 38.22929
-37.589764 60.640945 38.22929
-34.130066 63.852375 38.22929
2.3686836 50.17725 38.22929
-2.2332172 51.029453 38.22929
2.3686836 53.346615 38.22929
2.3686836 59.68535 38.22929
-2.2332172 57.79013 38.22929
-2.2332172 61.170467 38.22929
2.3686836 62.854717 38.22929
-40.4688 74.83138 38.22929
-46.040615 75.27825 38.22929
-42.053482 77.57613 38.22929
-23.037285 44.639114 38.22929
-21.452602 41.89436 38.22929
2.3686836 75.53218 38.22929
-2.2332172 78.07217 38.22929
2.3686836 78.70155 38.22929
-2.2332172 81.4525 38.22929
2.3686836 81.87091 38.22929
-2.2332172 84.83284 38.22929
25.270872 48.23687 38.22929
26.961042 51.16433 38.22929
2.3686836 47.007885 38.22929
-2.2332172 44.268772 38.22929
2.3686836 43.838516 38.22929
-2.2332172 40.88843 38.22929
37.10206 68.72909 38.22929
41.402115 66.9732 38.22929
38.79223 71.65655 38.22929
50.12862 26.20665 38.229286
48.93111 30.829088 38.229286
52.87337 27.791334 38.229286
55.618122 29.376019 38.229286
60.640945 37.589764 38.22929
61.107624 32.545383 38.229286
63.852375 34.130066 38.22929
30.341381 57.01925 38.22929
32.03155 59.946705 38.22929
35.06338 55.99419 38.22929
23.580704 45.309406 38.22929
69.423325 42.660275 38.22929
72.08663 38.884113 38.22929
72.350784 44.350445 38.22929
62.874165 -33.72172 38.229286
61.483696 -38.232746 38.229286
72.362816 -2.368684 38.229286
69.19345 -2.368684 38.229286
78.07217 2.2332168 38.229286
75.53218 -2.368684 38.229286
63.56841 39.279934 38.22929
40.66915 -2.368684 38.229286
43.838516 -2.368684 38.229286
34.29381 22.378239 38.229286
36.404858 18.283236 38.229286
78.70155 -2.368684 38.229286
81.4525 2.2332168 38.229286
58.738945 -36.648064 38.229286
64.22845 -39.817432 38.229286
68.72909 -37.10206 38.229286
66.9732 -41.402115 38.229286
59.946705 -32.03155 38.229286
48.23687 -25.270872 38.229286
47.759933 -30.30933 38.229286
45.015182 -28.724648 38.229286
42.270428 -27.139965 38.229286
39.52568 -25.555283 38.229286
37.499783 -2.3686833 38.229286
37.508095 2.2332168 38.229286
33.59957 -16.820024 38.229286
31.291424 -20.801231 38.229286
42.660275 -69.423325 38.229286
37.299435 -69.34188 38.229286
32.545383 -61.107624 38.229286
24.621967 -47.383865 38.229286
27.44875 -43.07619 38.229286
2.2332172 -81.4525 38.229282
-2.3686836 -81.87091 38.229282
-2.3686836 -56.51598 38.229286
-38.232746 -61.483696 38.229286
-33.72172 -62.874165 38.229286
-38.79223 -71.65655 38.229286
-21.890532 -42.38195 38.229286
-27.139965 -42.270428 38.229286
-36.404858 -18.283236 38.229286
-31.366354 -20.68807 38.229286
-34.29381 -22.378239 38.229286
-72.350784 -44.350445 38.229286
-47.383865 -24.621967 38.229286
-46.00365 -29.138918 38.229286
-39.14961 -19.867918 38.229286
-33.660107 -16.698551 38.229286
-72.362816 2.368683 38.229286
-71.311485 -2.2332177 38.229286
-74.69182 -2.2332177 38.229286
-75.53218 2.368683 38.229286
-85.040276 2.368683 38.229286
-88.24144 -5.7530457e-07 38.229286
-88.21318 -2.233217 38.229286
-56.51598 2.368683 38.229286
-54.40979 -2.2332177 38.229286
-40.88843 -2.2332177 38.229286
-40.66915 2.368683 38.229286
-37.508095 -2.2332177 38.229286
-37.499783 2.3686824 38.229286
-59.946705 32.03155 38.229286
-68.72909 37.10206 38.22929
-75.20745 46.156162 38.22929
-39.279934 63.56841 38.22929
-29.138918 46.00365 38.22929
-24.068409 37.221275 38.22929
-19.867918 39.14961 38.22929
-2.2332172 54.40979 38.22929
20.200363 39.45449 38.22929
21.890532 42.38195 38.22929
25.555283 39.52568 38.22929
31.894014 50.504684 38.22929
28.65121 54.091785 38.22929
33.4787 53.24944 38.22929
-2.2332165 88.21318 38.22929
2.3686836 88.20965 38.22929
33.72172 62.874165 38.22929
38.232746 61.483696 38.22929
2.3686836 40.66915 38.22929
35.41189 65.80163 38.22929
42.986794 69.71795 38.22929
58.362877 30.960701 38.229286
54.78603 34.209427 38.22929
66.49587 40.970104 38.22929
66.59713 35.71475 38.22929
23.970598 36.780926 38.22929
18.510193 36.52703 38.22929
74.83138 40.4688 38.22929
44.268772 2.2332168 38.229286
47.007885 -2.368684 38.229286
47.64911 2.2332168 38.229286
71.65655 -38.79223 38.229286
57.01925 -30.341381 38.229286
55.99419 -35.06338 38.229286
-47.759933 30.30933 38.229286
2.2332172 -64.55081 38.229286
-2.3686836 -66.024086 38.229286
-2.3686836 -62.854717 38.229286
23.037285 -44.639114 38.229286
2.2332172 -67.931145 38.229286
2.2332172 -71.311485 38.229286
-2.3686836 -69.19345 38.229286
2.2332172 -84.83284 38.229282
-2.3686836 -53.346615 38.229286
2.2332172 -54.40979 38.229286
-42.986794 -69.71795 38.229286
-60.640945 -37.589764 38.229286
-74.83138 -40.4688 38.229286
-66.024086 2.368683 38.229286
-67.931145 -2.2332177 38.229286
-69.19345 2.368683 38.229286
-88.20965 2.368683 38.229286
-64.55081 -2.2332177 38.229286
-62.854717 2.368683 38.229286
-58.738945 36.648064 38.22929
-66.9732 41.402115 38.22929
-35.71475 66.59713 38.22929
-40.970104 66.49587 38.22929
-37.299435 69.34188 38.22929
-42.660275 69.423325 38.22929
-38.884113 72.08663 38.22929
-44.350445 72.350784 38.22929
2.3686836 72.362816 38.22929
-2.2332172 71.311485 38.22929
-24.621967 47.383865 38.22929
-22.378239 34.29381 38.22929
-2.2332172 74.69182 38.22929
36.648064 58.738945 38.22929
27.139965 42.270428 38.22929
39.817432 64.22845 38.22929
40.482395 74.58401 38.22929
44.57148 72.4627 38.22929
42.17257 77.51147 38.22929
69.34188 37.299435 38.22929
75.27825 46.040615 38.22929
77.57613 42.053482 38.22929
57.79013 2.2332168 38.229286
56.51598 -2.368684 38.229286
54.40979 2.2332168 38.229286
31.366354 20.68807 38.229286
33.660107 16.698551 38.229286
69.71795 -42.986794 38.229286
54.091785 -28.65121 38.229286
53.24944 -33.4787 38.229286
-39.45449 20.200363 38.229286
-51.16433 26.961042 38.229286
38.884113 -72.08663 38.229286
25.758577 -40.14873 38.229286
2.2332172 -37.508095 38.229286
-2.3686829 -37.499783 38.229286
2.2332172 -74.69182 38.229286
-2.3686836 -72.362816 38.229286
-2.3686836 -85.040276 38.229282
-40.482395 -74.58401 38.229286
-44.57148 -72.4627 38.229286
-42.17257 -77.51147 38.229282
-28.65121 -54.091785 38.229286
-25.555283 -39.52568 38.229286
-20.200363 -39.45449 38.229286
-75.27825 -46.040615 38.229286
-43.07619 -27.44875 38.229286
-78.07217 -2.2332177 38.229286
-53.346615 2.368683 38.229286
-71.65655 38.79223 38.22929
-69.71795 42.986794 38.22929
2.3686836 56.51598 38.22929
-2.2332172 64.55081 38.22929
2.3686836 69.19345 38.22929
2.3686836 66.024086 38.22929
-2.2332172 67.931145 38.22929
-34.209427 54.78603 38.22929
-18.283236 36.404858 38.22929
2.3686836 85.040276 38.22929
2.3686829 37.499783 38.22929
44.639114 23.037285 38.229286
43.07619 27.44875 38.229286
57.71349 35.899597 38.22929
62.854717 -2.368684 38.229286
64.55081 2.2332168 38.229286
66.024086 -2.368684 38.229286
41.89436 21.452602 38.229286
40.14873 25.758577 38.229286
22.385916 34.036175 38.22929
59.68535 -2.368684 38.229286
61.170467 2.2332168 38.229286
53.346615 -2.368684 38.229286
51.029453 2.2332168 38.229286
81.87091 -2.368684 38.229286
72.4627 -44.57148 38.229286
77.51147 -42.17257 38.229286
75.20745 -46.156162 38.229286
36.780926 -23.970598 38.229286
39.45449 -20.200363 38.229286
74.58401 -40.482395 38.229286
-39.52568 25.555283 38.229286
-50.504684 31.894014 38.229286
37.589764 -60.640945 38.229286
34.130066 -63.852375 38.229286
44.350445 -72.350784 38.229286
21.452602 -41.89436 38.229286
2.2332165 -88.21318 38.229282
-2.3686836 -88.20965 38.229282
2.2332172 -51.029453 38.229286
-23.970598 -36.780926 38.229286
-22.385916 -34.036175 38.229286
-18.510193 -36.52703 38.229286
-26.961042 -51.16433 38.229286
-31.894014 -50.504684 38.229286
-77.57613 -42.053482 38.229286
-44.639114 -23.037285 38.229286
-78.70155 2.368683 38.229286
-51.029453 -2.2332177 38.229286
-30.960701 58.362877 38.22929
-27.44875 43.07619 38.22929
-2.2332172 37.508095 38.22929
39.14961 19.867918 38.229286
37.221275 24.068409 38.229286
67.931145 2.2332168 38.229286
51.16433 -26.961042 38.229286
50.504684 -31.894014 38.229286
36.52703 -18.510193 38.229286
34.036175 -22.385916 38.229286
-42.38195 21.890532 38.229286
-54.091785 28.65121 38.229286
27.791334 -52.87337 38.229286
24.068409 -37.221275 38.229286
20.68807 -31.366354 38.229286
16.698551 -33.660107 38.229286
-2.3686836 -50.17725 38.229286
-35.41189 -65.80163 38.229286
-30.30933 -47.759933 38.229286
-81.87091 2.368683 38.229286
-62.874165 33.72172 38.22929
-35.899597 57.71349 38.22929
-25.758577 40.14873 38.22929
-20.68807 31.366354 38.229286
-16.698551 33.660107 38.22929
46.156162 75.20745 38.22929
84.83284 2.2332168 38.229286
88.21318 2.233216 38.229286
85.040276 -2.368684 38.229286
51.858574 32.519257 38.229286
50.17725 -2.368684 38.229286
46.040615 -75.27825 38.229286
26.20665 -50.12862 38.229286
2.2332172 -78.07217 38.229282
-16.820024 -33.59957 38.229286
-20.801231 -31.291424 38.229286
-46.156162 -75.20745 38.229286
-57.71349 -35.899597 38.229286
-54.78603 -34.209427 38.229286
-41.89436 -21.452602 38.229286
-44.268772 -2.2332177 38.229286
-43.838516 2.368683 38.229286
-72.4627 44.57148 38.22929
28.724648 45.015182 38.22929
30.30933 47.759933 38.22929
46.00365 29.138918 38.229286
47.383865 24.621967 38.229286
74.69182 2.2332168 38.229286
71.311485 2.2332168 38.229286
16.820024 33.59957 38.22929
20.801231 31.291424 38.229286
45.309406 -23.580704 38.229286
42.38195 -21.890532 38.229286
88.20965 -2.368684 38.229286
35.899597 -57.71349 38.229286
-51.858574 -32.519257 38.229286
-2.2332172 47.64911 38.22929
65.80163 -35.41189 38.229286
40.88843 2.2332168 38.229286
-27.791334 52.87337 12.029289
-26.20665 50.12862 12.029289
-30.829088 48.93111 12.029289
-32.519257 51.858574 12.029289
-29.376019 55.618122 12.029289
-32.545383 61.107624 12.029289
-37.589764 60.640945 12.029289
-34.130066 63.852375 12.029289
-40.4688 74.83138 12.029289
-46.040615 75.27825 12.029289
-42.053482 77.57613 12.029289
-23.037285 44.639114 12.029289
-21.452602 41.89436 12.029289
-39.279934 63.56841 12.029289
-29.138918 46.00365 12.029289
-24.068409 37.221275 12.029289
-19.867918 39.14961 12.029289
-35.71475 66.59713 12.029289
-40.970104 66.49587 12.029289
-37.299435 69.34188 12.029289
-42.660275 69.423325 12.029289
-38.884113 72.08663 12.029289
-44.350445 72.350784 12.029289
-24.621967 47.383865 12.029289
-22.378239 34.29381 12.029289
-34.209427 54.78603 12.029289
-18.283236 36.404858 12.029289
-30.960701 58.362877 12.029289
-27.44875 43.07619 12.029289
-35.899597 57.71349 12.029289
-25.758577 40.14873 12.029289
-20.68807 31.366356 12.029285
-16.698551 33.660107 12.029289
3 76 77 78
3 79 80 76
3 76 78 79
3 296 359 338
3 81 359 82
3 359 81 338
3 83 81 82
3 189 83 82
3 83 189 242
3 189 243 242
3 242 243 244
3 245 244 243
3 244 245 246
3 247 246 245
3 246 247 91
3 91 247 92
3 92 93 91
3 296 338 80
3 79 296 80
3 190 78 77
3 190 250 339
3 250 190 77
3 360 339 94
3 250 94 339
3 95 191 360
3 360 94 95
3 191 192 251
3 192 191 95
3 361 251 297
3 192 297 251
3 361 297 362
4 693 476 797 819
4 759 694 820 826
4 758 759 826 825
4 648 758 825 818
4 736 757 824 822
4 756 693 819 823
4 757 588 809 824
4 641 643 815 813
4 479 756 823 800
4 492 491 805 806
4 488 490 804 802
4 478 480 801 799
4 473 477 798 794
4 474 473 794 795
4 588 648 818 809
4 647 474 795 817
4 644 642 814 816
4 639 641 813 811
4 694 589 810 820
4 587 736 822 808
4 477 735 821 798
4 643 488 802 815
4 642 640 812 814
4 480 639 811 801
4 491 647 817 805
4 489 644 816 803
4 640 586 807 812
4 735 478 799 821
4 589 492 806 810
4 475 587 808 796
4 490 489 803 804
4 586 479 800 807
4 476 475 796 797
4 4 320 717 401
4 109 206 603 506
4 338 81 478 735
4 114 207 604 511
4 220 321 718 617
4 243 189 586 640
4 209 131 528 606
4 154 323 720 551
4 92 247 644 489
4 116 117 514 513
4 324 152 549 721
4 381 382 779 778
4 325 224 621 722
4 194 212 609 591
4 94 250 647 491
4 254 381 778 651
4 222 227 624 619
4 123 213 610 520
4 99 97 494 496
4 278 327 724 675
4 133 215 612 530
4 227 277 674 624
4 130 136 533 527
4 138 126 523 535
4 88 193 590 485
4 230 328 725 627
4 126 139 536 523
4 330 329 726 727
4 108 205 602 505
4 217 140 537 614
4 112 383 780 509
4 142 218 615 539
4 206 257 654 603
4 282 332 729 679
4 145 144 541 542
4 115 302 699 512
4 1 0 397 398
4 333 39 436 730
4 8 220 617 405
4 283 164 561 680
4 16 153 550 413
4 385 386 783 782
4 0 4 401 397
4 329 283 680 726
4 199 120 517 596
4 56 52 449 453
4 7 5 402 404
4 383 301 698 780
4 224 155 552 621
4 212 387 784 609
4 225 221 618 622
4 233 334 731 630
4 226 225 622 623
4 387 388 785 784
4 388 308 705 785
4 335 169 566 732
4 15 14 411 412
4 174 235 632 571
4 228 157 554 625
4 213 261 658 610
4 221 27 424 618
4 17 18 415 414
4 176 336 733 573
4 11 19 416 408
4 129 385 782 526
4 235 238 635 632
4 229 159 556 626
4 20 21 418 417
4 178 179 576 575
4 24 22 419 421
4 135 341 738 532
4 181 337 734 578
4 33 35 432 430
4 25 26 423 422
4 289 187 584 686
4 37 40 437 434
4 161 37 434 558
4 27 29 426 424
4 389 390 787 786
4 83 242 639 480
4 313 366 763 710
4 43 231 628 440
4 32 30 427 429
4 366 391 788 763
4 245 243 640 642
4 164 48 445 561
4 167 166 563 564
4 319 217 614 716
4 246 91 488 643
4 34 32 429 431
4 45 232 629 442
4 36 38 435 433
4 80 338 735 477
4 55 233 630 452
4 39 36 433 436
4 344 143 540 741
4 59 170 567 456
4 219 138 535 616
4 190 339 736 587
4 143 389 786 540
4 297 192 589 694
4 61 167 564 458
4 41 43 440 438
4 312 216 613 709
4 234 236 633 631
4 118 198 595 515
4 175 174 571 572
4 346 150 547 743
4 249 295 692 646
4 177 237 634 574
4 47 49 446 444
4 5 348 745 402
4 107 340 737 504
4 51 50 447 448
4 52 44 441 449
4 340 299 696 737
4 239 234 631 636
4 10 349 746 407
4 302 208 605 699
4 180 66 463 577
4 44 53 450 441
4 53 55 452 450
4 392 11 408 789
4 70 240 637 467
4 50 56 453 447
4 322 392 789 719
4 341 306 703 738
4 58 57 454 455
4 73 241 638 470
4 301 307 704 698
4 60 61 458 457
4 323 16 413 720
4 308 211 608 705
4 63 62 459 460
4 242 244 641 639
4 64 65 462 461
4 18 369 766 415
4 311 263 660 708
4 247 245 642 644
4 155 370 767 552
4 305 128 525 702
4 67 69 466 464
4 263 309 706 660
4 9 70 467 406
4 266 135 532 663
4 250 77 474 647
4 351 23 420 748
4 71 73 470 468
4 316 315 712 713
4 191 251 648 588
4 75 74 471 472
4 77 76 473 474
4 157 371 768 554
4 268 344 741 665
4 248 96 493 645
4 30 354 751 427
4 198 103 500 595
4 76 80 477 473
4 42 355 752 439
4 120 253 650 517
4 347 317 714 744
4 81 83 480 478
4 374 281 678 771
4 348 270 667 745
4 196 254 651 593
4 84 86 483 481
4 48 356 753 445
4 253 203 600 650
4 204 106 503 601
4 321 9 406 718
4 87 90 487 484
4 203 255 652 600
4 14 322 719 411
4 91 93 490 488
4 57 51 448 454
4 256 110 507 653
4 95 94 491 492
4 376 393 790 773
4 272 17 414 669
4 393 59 456 790
4 258 256 653 655
4 96 98 495 493
4 19 20 417 416
4 171 377 774 568
4 211 196 593 608
4 101 99 496 498
4 22 325 722 419
4 117 210 607 514
4 103 102 499 500
4 379 67 464 776
4 210 259 656 607
4 104 84 481 501
4 23 352 749 420
4 260 124 521 657
4 105 107 504 502
4 357 177 574 754
4 352 353 750 749
4 261 260 657 658
4 275 34 431 672
4 110 108 505 507
4 66 239 636 463
4 262 264 661 659
4 277 25 422 674
4 265 266 663 662
4 113 114 511 510
4 326 228 625 723
4 183 379 776 580
4 134 265 662 531
4 240 71 468 637
4 354 229 626 751
4 149 148 545 546
4 119 118 515 516
4 216 214 611 613
4 102 121 518 499
4 380 188 585 777
4 160 41 438 557
4 141 267 664 538
4 124 122 519 521
4 82 359 756 479
4 231 280 677 628
4 85 394 791 482
4 218 268 665 615
4 128 127 524 525
4 332 47 444 729
4 270 3 400 667
4 127 130 527 524
4 244 246 643 641
4 131 115 512 528
4 284 331 728 681
4 132 133 530 529
4 295 292 689 692
4 271 7 404 668
4 111 113 510 508
4 334 285 682 731
4 153 272 669 550
4 286 60 457 683
4 223 222 619 620
4 137 129 526 534
4 360 191 588 757
4 336 357 754 733
4 156 273 670 553
4 97 252 649 494
4 139 141 538 536
4 274 275 672 671
4 125 142 539 522
4 382 197 594 779
4 238 64 461 635
4 276 226 623 673
4 98 100 497 495
4 337 68 465 734
4 146 145 542 543
4 158 278 675 555
4 147 146 543 544
4 298 201 598 695
4 148 132 529 545
4 384 111 508 781
4 358 186 583 755
4 28 223 620 425
4 150 151 548 547
4 72 358 755 469
4 29 230 627 426
4 2 1 398 399
4 394 105 502 791
4 3 2 399 400
4 106 104 501 503
4 74 289 686 471
4 35 274 671 432
4 6 8 405 403
4 359 296 693 756
4 13 12 409 410
4 255 109 506 652
4 300 384 781 697
4 279 162 559 676
4 152 15 412 549
4 291 87 484 688
4 281 279 676 678
4 12 154 551 409
4 40 282 679 437
4 363 258 655 760
4 21 156 553 418
4 339 360 757 736
4 208 367 764 605
4 163 284 681 560
4 251 361 758 648
4 26 158 555 423
4 259 123 520 656
4 285 168 565 682
4 159 28 425 556
4 361 362 759 758
4 395 125 522 792
4 362 297 694 759
4 170 286 683 567
4 31 33 430 428
4 166 172 569 563
4 200 101 498 597
4 38 160 557 435
4 90 294 691 487
4 236 173 570 633
4 214 396 793 611
4 342 134 531 739
4 257 363 760 654
4 46 45 442 443
4 307 342 739 704
4 287 175 572 684
4 162 42 439 559
4 391 365 762 788
4 343 304 701 740
4 237 178 575 634
4 365 364 761 762
4 49 163 560 446
4 288 180 577 685
4 140 395 792 537
4 386 343 740 783
4 367 112 509 764
4 241 290 687 638
4 54 46 443 451
4 144 345 742 541
4 390 318 715 787
4 304 310 707 701
4 168 54 451 565
4 396 149 546 793
4 368 311 708 765
4 86 291 688 483
4 364 137 534 761
4 151 347 744 548
4 292 89 486 689
4 169 58 455 566
4 345 269 666 742
4 294 293 690 691
4 215 368 765 612
4 296 79 476 693
4 165 171 568 562
4 318 346 743 715
4 172 165 562 569
4 315 319 716 712
4 293 248 645 690
4 320 6 403 717
4 173 176 573 570
4 349 271 668 746
4 252 249 646 649
4 369 324 721 766
4 121 195 592 518
4 179 63 460 576
4 350 13 410 747
4 100 298 695 497
4 370 350 747 767
4 65 181 578 462
4 202 119 516 599
4 273 351 748 670
4 299 204 601 696
4 182 184 581 579
4 353 24 421 750
4 185 183 580 582
4 371 276 673 768
4 184 185 582 581
4 327 326 723 724
4 186 10 407 583
4 303 305 702 700
4 328 31 428 725
4 306 300 697 703
4 187 72 469 584
4 372 373 770 769
4 188 75 472 585
4 373 330 727 770
4 79 78 475 476
4 355 161 558 752
4 207 116 513 604
4 189 82 479 586
4 280 374 771 677
4 122 209 606 519
4 356 333 730 753
4 309 303 700 706
4 89 88 485 486
4 331 372 769 728
4 93 92 489 490
4 78 190 587 475
4 375 376 773 772
4 310 262 659 707
4 232 375 772 629
4 192 95 492 589
4 193 85 482 590
4 377 335 732 774
4 264 312 709 661
4 195 194 591 592
4 136 313 710 533
4 62 287 684 459
4 314 316 713 711
4 197 199 596 594
4 69 288 685 466
4 269 219 616 666
4 201 200 597 598
4 68 378 775 465
4 317 147 544 714
4 378 182 579 775
4 267 314 711 664
4 205 202 599 602
4 290 380 777 687
3 794 796 795
3 797 794 798
3 794 797 796
3 819 821 823
3 799 800 823
3 823 821 799
3 801 800 799
3 807 800 801
3 801 811 807
3 807 811 812
3 811 813 812
3 814 812 813
3 813 815 814
3 816 814 815
3 815 802 816
3 802 803 816
3 803 802 804
3 819 798 821
3 797 798 819
3 808 795 796
3 808 822 817
3 817 795 808
3 824 805 822
3 817 822 805
3 806 824 809
3 824 806 805
3 809 818 810
3 810 806 809
3 825 820 818
3 810 818 820
3 825 826 820
